<mxfile host="app.diagrams.net" modified="2023-03-13T16:22:00.676Z" agent="5.0 (Windows NT 10.0; Win64; x64) AppleWebKit/537.36 (KHTML, like Gecko) Chrome/110.0.0.0 Safari/537.36 Edg/110.0.1587.63" etag="57SU0_Dt-HxircVIgSEE" version="21.0.2" type="github" pages="5">
  <diagram name="wasted-要素抽取" id="2YBvvXClWsGukQMizWep">
    <mxGraphModel dx="1221" dy="636" grid="1" gridSize="10" guides="1" tooltips="1" connect="1" arrows="1" fold="1" page="1" pageScale="1" pageWidth="850" pageHeight="1100" math="0" shadow="0">
      <root>
        <mxCell id="0" />
        <mxCell id="1" parent="0" />
        <mxCell id="aM9ryv3xv72pqoxQDRHE-1" value="前端" style="shape=umlLifeline;perimeter=lifelinePerimeter;whiteSpace=wrap;html=1;container=0;dropTarget=0;collapsible=0;recursiveResize=0;outlineConnect=0;portConstraint=eastwest;newEdgeStyle={&quot;edgeStyle&quot;:&quot;elbowEdgeStyle&quot;,&quot;elbow&quot;:&quot;vertical&quot;,&quot;curved&quot;:0,&quot;rounded&quot;:0};fontFamily=Arial;fontSize=14;" parent="1" vertex="1">
          <mxGeometry x="50" y="40" width="100" height="880" as="geometry" />
        </mxCell>
        <mxCell id="aM9ryv3xv72pqoxQDRHE-2" value="" style="html=1;points=[];perimeter=orthogonalPerimeter;outlineConnect=0;targetShapes=umlLifeline;portConstraint=eastwest;newEdgeStyle={&quot;edgeStyle&quot;:&quot;elbowEdgeStyle&quot;,&quot;elbow&quot;:&quot;vertical&quot;,&quot;curved&quot;:0,&quot;rounded&quot;:0};fontFamily=Arial;fontSize=14;" parent="aM9ryv3xv72pqoxQDRHE-1" vertex="1">
          <mxGeometry x="45" y="70" width="10" height="790" as="geometry" />
        </mxCell>
        <mxCell id="aM9ryv3xv72pqoxQDRHE-5" value="&lt;font style=&quot;font-size: 13px;&quot;&gt;ElementExtractController&lt;/font&gt;" style="shape=umlLifeline;perimeter=lifelinePerimeter;whiteSpace=wrap;html=1;container=0;dropTarget=0;collapsible=0;recursiveResize=0;outlineConnect=0;portConstraint=eastwest;newEdgeStyle={&quot;edgeStyle&quot;:&quot;elbowEdgeStyle&quot;,&quot;elbow&quot;:&quot;vertical&quot;,&quot;curved&quot;:0,&quot;rounded&quot;:0};fontFamily=Arial;fontSize=14;" parent="1" vertex="1">
          <mxGeometry x="190" y="40" width="150" height="880" as="geometry" />
        </mxCell>
        <mxCell id="aM9ryv3xv72pqoxQDRHE-6" value="" style="html=1;points=[];perimeter=orthogonalPerimeter;outlineConnect=0;targetShapes=umlLifeline;portConstraint=eastwest;newEdgeStyle={&quot;edgeStyle&quot;:&quot;elbowEdgeStyle&quot;,&quot;elbow&quot;:&quot;vertical&quot;,&quot;curved&quot;:0,&quot;rounded&quot;:0};fontFamily=Arial;fontSize=14;" parent="aM9ryv3xv72pqoxQDRHE-5" vertex="1">
          <mxGeometry x="70" y="70" width="10" height="780" as="geometry" />
        </mxCell>
        <mxCell id="aM9ryv3xv72pqoxQDRHE-7" value="1.getDocExtract()" style="html=1;verticalAlign=bottom;endArrow=block;edgeStyle=elbowEdgeStyle;elbow=vertical;curved=0;rounded=0;fontFamily=Arial;fontSize=14;" parent="1" source="aM9ryv3xv72pqoxQDRHE-2" target="aM9ryv3xv72pqoxQDRHE-6" edge="1">
          <mxGeometry relative="1" as="geometry">
            <mxPoint x="205" y="130" as="sourcePoint" />
            <Array as="points">
              <mxPoint x="190" y="120" />
            </Array>
            <mxPoint as="offset" />
          </mxGeometry>
        </mxCell>
        <mxCell id="aM9ryv3xv72pqoxQDRHE-9" value="2.extract()" style="html=1;verticalAlign=bottom;endArrow=block;edgeStyle=elbowEdgeStyle;elbow=vertical;curved=0;rounded=0;fontFamily=Arial;fontSize=14;" parent="1" target="GEM0UlooVrI4eWI_wyiW-4" edge="1">
          <mxGeometry x="-0.0909" relative="1" as="geometry">
            <mxPoint x="270" y="146" as="sourcePoint" />
            <Array as="points">
              <mxPoint x="275" y="146" />
            </Array>
            <mxPoint x="435" y="146" as="targetPoint" />
            <mxPoint as="offset" />
          </mxGeometry>
        </mxCell>
        <mxCell id="GEM0UlooVrI4eWI_wyiW-3" value="&lt;font style=&quot;font-size: 13px;&quot;&gt;ElementExtractServiceImpl&lt;/font&gt;" style="shape=umlLifeline;perimeter=lifelinePerimeter;whiteSpace=wrap;html=1;container=0;dropTarget=0;collapsible=0;recursiveResize=0;outlineConnect=0;portConstraint=eastwest;newEdgeStyle={&quot;edgeStyle&quot;:&quot;elbowEdgeStyle&quot;,&quot;elbow&quot;:&quot;vertical&quot;,&quot;curved&quot;:0,&quot;rounded&quot;:0};fontFamily=Arial;fontSize=14;" parent="1" vertex="1">
          <mxGeometry x="370" y="40" width="160" height="880" as="geometry" />
        </mxCell>
        <mxCell id="GEM0UlooVrI4eWI_wyiW-4" value="" style="html=1;points=[];perimeter=orthogonalPerimeter;outlineConnect=0;targetShapes=umlLifeline;portConstraint=eastwest;newEdgeStyle={&quot;edgeStyle&quot;:&quot;elbowEdgeStyle&quot;,&quot;elbow&quot;:&quot;vertical&quot;,&quot;curved&quot;:0,&quot;rounded&quot;:0};fontFamily=Arial;fontSize=14;" parent="GEM0UlooVrI4eWI_wyiW-3" vertex="1">
          <mxGeometry x="75" y="70" width="10" height="770" as="geometry" />
        </mxCell>
        <mxCell id="GEM0UlooVrI4eWI_wyiW-5" value="processDocHandler" style="shape=umlLifeline;perimeter=lifelinePerimeter;whiteSpace=wrap;html=1;container=0;dropTarget=0;collapsible=0;recursiveResize=0;outlineConnect=0;portConstraint=eastwest;newEdgeStyle={&quot;edgeStyle&quot;:&quot;elbowEdgeStyle&quot;,&quot;elbow&quot;:&quot;vertical&quot;,&quot;curved&quot;:0,&quot;rounded&quot;:0};fontFamily=Arial;fontSize=14;" parent="1" vertex="1">
          <mxGeometry x="530" y="100" width="140" height="170" as="geometry" />
        </mxCell>
        <mxCell id="GEM0UlooVrI4eWI_wyiW-6" value="" style="html=1;points=[];perimeter=orthogonalPerimeter;outlineConnect=0;targetShapes=umlLifeline;portConstraint=eastwest;newEdgeStyle={&quot;edgeStyle&quot;:&quot;elbowEdgeStyle&quot;,&quot;elbow&quot;:&quot;vertical&quot;,&quot;curved&quot;:0,&quot;rounded&quot;:0};fontFamily=Arial;fontSize=14;" parent="GEM0UlooVrI4eWI_wyiW-5" vertex="1">
          <mxGeometry x="65" y="70" width="10" height="80" as="geometry" />
        </mxCell>
        <mxCell id="GEM0UlooVrI4eWI_wyiW-7" style="edgeStyle=elbowEdgeStyle;rounded=0;orthogonalLoop=1;jettySize=auto;html=1;elbow=vertical;curved=0;fontFamily=Arial;fontSize=14;" parent="1" source="GEM0UlooVrI4eWI_wyiW-4" edge="1">
          <mxGeometry relative="1" as="geometry">
            <mxPoint x="460" y="187" as="sourcePoint" />
            <mxPoint x="595" y="187" as="targetPoint" />
          </mxGeometry>
        </mxCell>
        <mxCell id="GEM0UlooVrI4eWI_wyiW-8" value="3.process()" style="edgeLabel;html=1;align=center;verticalAlign=middle;resizable=0;points=[];fontFamily=Arial;fontSize=14;" parent="GEM0UlooVrI4eWI_wyiW-7" vertex="1" connectable="0">
          <mxGeometry x="0.131" y="-3" relative="1" as="geometry">
            <mxPoint x="-2" y="-18" as="offset" />
          </mxGeometry>
        </mxCell>
        <mxCell id="GEM0UlooVrI4eWI_wyiW-9" style="edgeStyle=elbowEdgeStyle;rounded=0;orthogonalLoop=1;jettySize=auto;html=1;elbow=vertical;curved=0;dashed=1;fontFamily=Arial;fontSize=14;" parent="1" target="GEM0UlooVrI4eWI_wyiW-4" edge="1">
          <mxGeometry relative="1" as="geometry">
            <mxPoint x="595" y="223" as="sourcePoint" />
            <mxPoint x="450" y="223" as="targetPoint" />
          </mxGeometry>
        </mxCell>
        <mxCell id="GEM0UlooVrI4eWI_wyiW-10" style="edgeStyle=elbowEdgeStyle;rounded=0;orthogonalLoop=1;jettySize=auto;html=1;elbow=vertical;curved=0;dashed=1;fontFamily=Arial;fontSize=14;" parent="1" source="GEM0UlooVrI4eWI_wyiW-4" target="aM9ryv3xv72pqoxQDRHE-6" edge="1">
          <mxGeometry relative="1" as="geometry">
            <mxPoint x="440" y="260" as="sourcePoint" />
            <mxPoint x="275" y="260" as="targetPoint" />
            <Array as="points">
              <mxPoint x="400" y="260" />
              <mxPoint x="370" y="250" />
            </Array>
          </mxGeometry>
        </mxCell>
        <mxCell id="GEM0UlooVrI4eWI_wyiW-11" value="ElementExtractHandler" style="shape=umlLifeline;perimeter=lifelinePerimeter;whiteSpace=wrap;html=1;container=0;dropTarget=0;collapsible=0;recursiveResize=0;outlineConnect=0;portConstraint=eastwest;newEdgeStyle={&quot;edgeStyle&quot;:&quot;elbowEdgeStyle&quot;,&quot;elbow&quot;:&quot;vertical&quot;,&quot;curved&quot;:0,&quot;rounded&quot;:0};fontFamily=Arial;fontSize=14;" parent="1" vertex="1">
          <mxGeometry x="530" y="280" width="140" height="380" as="geometry" />
        </mxCell>
        <mxCell id="GEM0UlooVrI4eWI_wyiW-12" value="" style="html=1;points=[];perimeter=orthogonalPerimeter;outlineConnect=0;targetShapes=umlLifeline;portConstraint=eastwest;newEdgeStyle={&quot;edgeStyle&quot;:&quot;elbowEdgeStyle&quot;,&quot;elbow&quot;:&quot;vertical&quot;,&quot;curved&quot;:0,&quot;rounded&quot;:0};fontFamily=Arial;fontSize=14;" parent="GEM0UlooVrI4eWI_wyiW-11" vertex="1">
          <mxGeometry x="65" y="70" width="10" height="290" as="geometry" />
        </mxCell>
        <mxCell id="GEM0UlooVrI4eWI_wyiW-13" style="edgeStyle=elbowEdgeStyle;rounded=0;orthogonalLoop=1;jettySize=auto;html=1;elbow=vertical;curved=0;fontFamily=Arial;fontSize=14;" parent="1" source="GEM0UlooVrI4eWI_wyiW-4" edge="1">
          <mxGeometry relative="1" as="geometry">
            <mxPoint x="460" y="370" as="sourcePoint" />
            <mxPoint x="595" y="369.5" as="targetPoint" />
            <Array as="points" />
          </mxGeometry>
        </mxCell>
        <mxCell id="GEM0UlooVrI4eWI_wyiW-15" value="4.extract()" style="edgeLabel;html=1;align=center;verticalAlign=middle;resizable=0;points=[];fontFamily=Arial;fontSize=14;" parent="GEM0UlooVrI4eWI_wyiW-13" vertex="1" connectable="0">
          <mxGeometry x="-0.0343" relative="1" as="geometry">
            <mxPoint y="-10" as="offset" />
          </mxGeometry>
        </mxCell>
        <mxCell id="GEM0UlooVrI4eWI_wyiW-16" value="ElementDAO" style="shape=umlLifeline;perimeter=lifelinePerimeter;whiteSpace=wrap;html=1;container=0;dropTarget=0;collapsible=0;recursiveResize=0;outlineConnect=0;portConstraint=eastwest;newEdgeStyle={&quot;edgeStyle&quot;:&quot;elbowEdgeStyle&quot;,&quot;elbow&quot;:&quot;vertical&quot;,&quot;curved&quot;:0,&quot;rounded&quot;:0};fontFamily=Arial;fontSize=14;" parent="1" vertex="1">
          <mxGeometry x="700" y="280" width="110" height="190" as="geometry" />
        </mxCell>
        <mxCell id="GEM0UlooVrI4eWI_wyiW-17" value="" style="html=1;points=[];perimeter=orthogonalPerimeter;outlineConnect=0;targetShapes=umlLifeline;portConstraint=eastwest;newEdgeStyle={&quot;edgeStyle&quot;:&quot;elbowEdgeStyle&quot;,&quot;elbow&quot;:&quot;vertical&quot;,&quot;curved&quot;:0,&quot;rounded&quot;:0};fontFamily=Arial;fontSize=14;" parent="GEM0UlooVrI4eWI_wyiW-16" vertex="1">
          <mxGeometry x="50" y="80" width="10" height="90" as="geometry" />
        </mxCell>
        <mxCell id="GEM0UlooVrI4eWI_wyiW-18" value="Element" style="shape=umlLifeline;perimeter=lifelinePerimeter;whiteSpace=wrap;html=1;container=0;dropTarget=0;collapsible=0;recursiveResize=0;outlineConnect=0;portConstraint=eastwest;newEdgeStyle={&quot;edgeStyle&quot;:&quot;elbowEdgeStyle&quot;,&quot;elbow&quot;:&quot;vertical&quot;,&quot;curved&quot;:0,&quot;rounded&quot;:0};fontFamily=Arial;fontSize=14;" parent="1" vertex="1">
          <mxGeometry x="850" y="280" width="100" height="180" as="geometry" />
        </mxCell>
        <mxCell id="GEM0UlooVrI4eWI_wyiW-19" value="" style="html=1;points=[];perimeter=orthogonalPerimeter;outlineConnect=0;targetShapes=umlLifeline;portConstraint=eastwest;newEdgeStyle={&quot;edgeStyle&quot;:&quot;elbowEdgeStyle&quot;,&quot;elbow&quot;:&quot;vertical&quot;,&quot;curved&quot;:0,&quot;rounded&quot;:0};fontFamily=Arial;fontSize=14;" parent="GEM0UlooVrI4eWI_wyiW-18" vertex="1">
          <mxGeometry x="45" y="100" width="10" height="70" as="geometry" />
        </mxCell>
        <mxCell id="GEM0UlooVrI4eWI_wyiW-20" style="edgeStyle=elbowEdgeStyle;rounded=0;orthogonalLoop=1;jettySize=auto;html=1;elbow=vertical;curved=0;fontFamily=Arial;fontSize=14;" parent="1" edge="1">
          <mxGeometry relative="1" as="geometry">
            <mxPoint x="605" y="385" as="sourcePoint" />
            <mxPoint x="750" y="385" as="targetPoint" />
          </mxGeometry>
        </mxCell>
        <mxCell id="GEM0UlooVrI4eWI_wyiW-21" value="5.getList()" style="edgeLabel;html=1;align=center;verticalAlign=middle;resizable=0;points=[];fontFamily=Arial;fontSize=14;" parent="1" vertex="1" connectable="0">
          <mxGeometry x="690" y="380" as="geometry">
            <mxPoint x="-16" y="-4" as="offset" />
          </mxGeometry>
        </mxCell>
        <mxCell id="GEM0UlooVrI4eWI_wyiW-22" value="6.new()" style="edgeStyle=elbowEdgeStyle;rounded=0;orthogonalLoop=1;jettySize=auto;html=1;elbow=vertical;curved=0;fontFamily=Arial;fontSize=14;" parent="1" source="GEM0UlooVrI4eWI_wyiW-17" target="GEM0UlooVrI4eWI_wyiW-19" edge="1">
          <mxGeometry x="0.037" y="9" relative="1" as="geometry">
            <mxPoint x="775" y="399" as="sourcePoint" />
            <mxPoint x="950" y="399" as="targetPoint" />
            <Array as="points">
              <mxPoint x="870" y="399" />
            </Array>
            <mxPoint as="offset" />
          </mxGeometry>
        </mxCell>
        <mxCell id="GEM0UlooVrI4eWI_wyiW-23" style="edgeStyle=elbowEdgeStyle;rounded=0;orthogonalLoop=1;jettySize=auto;html=1;elbow=vertical;curved=0;dashed=1;fontFamily=Arial;fontSize=14;" parent="1" source="GEM0UlooVrI4eWI_wyiW-19" edge="1">
          <mxGeometry relative="1" as="geometry">
            <mxPoint x="950" y="424" as="sourcePoint" />
            <mxPoint x="759.5" y="424" as="targetPoint" />
          </mxGeometry>
        </mxCell>
        <mxCell id="GEM0UlooVrI4eWI_wyiW-24" style="edgeStyle=elbowEdgeStyle;rounded=0;orthogonalLoop=1;jettySize=auto;html=1;elbow=vertical;curved=0;dashed=1;fontFamily=Arial;fontSize=14;" parent="1" edge="1">
          <mxGeometry relative="1" as="geometry">
            <mxPoint x="750" y="429" as="sourcePoint" />
            <mxPoint x="605" y="429" as="targetPoint" />
          </mxGeometry>
        </mxCell>
        <mxCell id="GEM0UlooVrI4eWI_wyiW-25" value="Flask API" style="shape=umlLifeline;perimeter=lifelinePerimeter;whiteSpace=wrap;html=1;container=0;dropTarget=0;collapsible=0;recursiveResize=0;outlineConnect=0;portConstraint=eastwest;newEdgeStyle={&quot;edgeStyle&quot;:&quot;elbowEdgeStyle&quot;,&quot;elbow&quot;:&quot;vertical&quot;,&quot;curved&quot;:0,&quot;rounded&quot;:0};fontFamily=Arial;fontSize=14;" parent="1" vertex="1">
          <mxGeometry x="705" y="480" width="100" height="180" as="geometry" />
        </mxCell>
        <mxCell id="GEM0UlooVrI4eWI_wyiW-26" value="" style="html=1;points=[];perimeter=orthogonalPerimeter;outlineConnect=0;targetShapes=umlLifeline;portConstraint=eastwest;newEdgeStyle={&quot;edgeStyle&quot;:&quot;elbowEdgeStyle&quot;,&quot;elbow&quot;:&quot;vertical&quot;,&quot;curved&quot;:0,&quot;rounded&quot;:0};fontFamily=Arial;fontSize=14;" parent="GEM0UlooVrI4eWI_wyiW-25" vertex="1">
          <mxGeometry x="45" y="70" width="10" height="70" as="geometry" />
        </mxCell>
        <mxCell id="GEM0UlooVrI4eWI_wyiW-27" style="edgeStyle=elbowEdgeStyle;rounded=0;orthogonalLoop=1;jettySize=auto;html=1;elbow=vertical;curved=0;fontFamily=Arial;fontSize=14;" parent="1" edge="1">
          <mxGeometry relative="1" as="geometry">
            <mxPoint x="605" y="567" as="sourcePoint" />
            <mxPoint x="750" y="567" as="targetPoint" />
          </mxGeometry>
        </mxCell>
        <mxCell id="GEM0UlooVrI4eWI_wyiW-29" value="7.extractElement()" style="edgeLabel;html=1;align=center;verticalAlign=middle;resizable=0;points=[];fontFamily=Arial;fontSize=14;" parent="GEM0UlooVrI4eWI_wyiW-27" vertex="1" connectable="0">
          <mxGeometry x="-0.1494" y="-2" relative="1" as="geometry">
            <mxPoint x="1" y="-13" as="offset" />
          </mxGeometry>
        </mxCell>
        <mxCell id="GEM0UlooVrI4eWI_wyiW-28" style="edgeStyle=elbowEdgeStyle;rounded=0;orthogonalLoop=1;jettySize=auto;html=1;elbow=vertical;curved=0;dashed=1;fontFamily=Arial;fontSize=14;" parent="1" edge="1">
          <mxGeometry relative="1" as="geometry">
            <mxPoint x="750" y="602" as="sourcePoint" />
            <mxPoint x="605" y="602" as="targetPoint" />
          </mxGeometry>
        </mxCell>
        <mxCell id="GEM0UlooVrI4eWI_wyiW-30" style="edgeStyle=elbowEdgeStyle;rounded=0;orthogonalLoop=1;jettySize=auto;html=1;elbow=vertical;curved=0;dashed=1;fontFamily=Arial;fontSize=14;" parent="1" target="GEM0UlooVrI4eWI_wyiW-4" edge="1">
          <mxGeometry relative="1" as="geometry">
            <mxPoint x="595" y="621" as="sourcePoint" />
            <mxPoint x="450" y="621" as="targetPoint" />
          </mxGeometry>
        </mxCell>
        <mxCell id="GEM0UlooVrI4eWI_wyiW-31" value="ElementResultDAO" style="shape=umlLifeline;perimeter=lifelinePerimeter;whiteSpace=wrap;html=1;container=0;dropTarget=0;collapsible=0;recursiveResize=0;outlineConnect=0;portConstraint=eastwest;newEdgeStyle={&quot;edgeStyle&quot;:&quot;elbowEdgeStyle&quot;,&quot;elbow&quot;:&quot;vertical&quot;,&quot;curved&quot;:0,&quot;rounded&quot;:0};fontFamily=Arial;fontSize=14;" parent="1" vertex="1">
          <mxGeometry x="540" y="670" width="120" height="180" as="geometry" />
        </mxCell>
        <mxCell id="GEM0UlooVrI4eWI_wyiW-32" value="" style="html=1;points=[];perimeter=orthogonalPerimeter;outlineConnect=0;targetShapes=umlLifeline;portConstraint=eastwest;newEdgeStyle={&quot;edgeStyle&quot;:&quot;elbowEdgeStyle&quot;,&quot;elbow&quot;:&quot;vertical&quot;,&quot;curved&quot;:0,&quot;rounded&quot;:0};fontFamily=Arial;fontSize=14;" parent="GEM0UlooVrI4eWI_wyiW-31" vertex="1">
          <mxGeometry x="55" y="60" width="10" height="70" as="geometry" />
        </mxCell>
        <mxCell id="GEM0UlooVrI4eWI_wyiW-33" style="edgeStyle=elbowEdgeStyle;rounded=0;orthogonalLoop=1;jettySize=auto;html=1;elbow=vertical;curved=0;entryX=-0.067;entryY=0.233;entryDx=0;entryDy=0;entryPerimeter=0;fontFamily=Arial;fontSize=14;" parent="1" source="GEM0UlooVrI4eWI_wyiW-4" target="GEM0UlooVrI4eWI_wyiW-32" edge="1">
          <mxGeometry relative="1" as="geometry" />
        </mxCell>
        <mxCell id="GEM0UlooVrI4eWI_wyiW-37" value="8.save" style="edgeLabel;html=1;align=center;verticalAlign=middle;resizable=0;points=[];fontFamily=Arial;fontSize=14;" parent="GEM0UlooVrI4eWI_wyiW-33" vertex="1" connectable="0">
          <mxGeometry x="0.444" y="1" relative="1" as="geometry">
            <mxPoint x="-34" y="-12" as="offset" />
          </mxGeometry>
        </mxCell>
        <mxCell id="GEM0UlooVrI4eWI_wyiW-34" style="edgeStyle=elbowEdgeStyle;rounded=0;orthogonalLoop=1;jettySize=auto;html=1;elbow=vertical;curved=0;dashed=1;fontFamily=Arial;fontSize=14;" parent="1" source="GEM0UlooVrI4eWI_wyiW-32" target="GEM0UlooVrI4eWI_wyiW-4" edge="1">
          <mxGeometry relative="1" as="geometry">
            <Array as="points">
              <mxPoint x="510" y="780" />
            </Array>
          </mxGeometry>
        </mxCell>
        <mxCell id="GEM0UlooVrI4eWI_wyiW-35" style="edgeStyle=elbowEdgeStyle;rounded=0;orthogonalLoop=1;jettySize=auto;html=1;elbow=vertical;curved=0;dashed=1;fontFamily=Arial;fontSize=14;" parent="1" source="GEM0UlooVrI4eWI_wyiW-4" target="aM9ryv3xv72pqoxQDRHE-6" edge="1">
          <mxGeometry relative="1" as="geometry">
            <Array as="points">
              <mxPoint x="360" y="820" />
            </Array>
          </mxGeometry>
        </mxCell>
        <mxCell id="GEM0UlooVrI4eWI_wyiW-36" style="edgeStyle=elbowEdgeStyle;rounded=0;orthogonalLoop=1;jettySize=auto;html=1;elbow=vertical;curved=0;dashed=1;fontFamily=Arial;fontSize=14;" parent="1" source="aM9ryv3xv72pqoxQDRHE-6" target="aM9ryv3xv72pqoxQDRHE-2" edge="1">
          <mxGeometry relative="1" as="geometry">
            <Array as="points">
              <mxPoint x="180" y="870" />
            </Array>
          </mxGeometry>
        </mxCell>
        <mxCell id="53WEo88fRdOh4hEnrEYY-1" value="&lt;font&gt;前端&lt;/font&gt;" style="shape=umlLifeline;perimeter=lifelinePerimeter;whiteSpace=wrap;html=1;container=0;dropTarget=0;collapsible=0;recursiveResize=0;outlineConnect=0;portConstraint=eastwest;newEdgeStyle={&quot;edgeStyle&quot;:&quot;elbowEdgeStyle&quot;,&quot;elbow&quot;:&quot;vertical&quot;,&quot;curved&quot;:0,&quot;rounded&quot;:0};fontFamily=Arial;fontSize=14;" parent="1" vertex="1">
          <mxGeometry x="50" y="40" width="100" height="880" as="geometry" />
        </mxCell>
        <mxCell id="53WEo88fRdOh4hEnrEYY-2" value="" style="html=1;points=[];perimeter=orthogonalPerimeter;outlineConnect=0;targetShapes=umlLifeline;portConstraint=eastwest;newEdgeStyle={&quot;edgeStyle&quot;:&quot;elbowEdgeStyle&quot;,&quot;elbow&quot;:&quot;vertical&quot;,&quot;curved&quot;:0,&quot;rounded&quot;:0};fontFamily=Arial;fontSize=14;" parent="53WEo88fRdOh4hEnrEYY-1" vertex="1">
          <mxGeometry x="45" y="70" width="10" height="790" as="geometry" />
        </mxCell>
      </root>
    </mxGraphModel>
  </diagram>
  <diagram id="y2LEGEudjqdSWTU7S2bE" name="文档上传">
    <mxGraphModel dx="1221" dy="636" grid="1" gridSize="10" guides="1" tooltips="1" connect="1" arrows="1" fold="1" page="1" pageScale="1" pageWidth="827" pageHeight="1169" math="0" shadow="0">
      <root>
        <mxCell id="0" />
        <mxCell id="1" parent="0" />
        <mxCell id="oCaHh_Mgp-v5R5Bt4WXx-1" value="&lt;font style=&quot;font-size: 14px;&quot;&gt;主界面&lt;/font&gt;" style="shape=umlLifeline;perimeter=lifelinePerimeter;whiteSpace=wrap;html=1;container=0;dropTarget=0;collapsible=0;recursiveResize=0;outlineConnect=0;portConstraint=eastwest;newEdgeStyle={&quot;edgeStyle&quot;:&quot;elbowEdgeStyle&quot;,&quot;elbow&quot;:&quot;vertical&quot;,&quot;curved&quot;:0,&quot;rounded&quot;:0};fontFamily=Arial;" parent="1" vertex="1">
          <mxGeometry x="280" y="40" width="80" height="840" as="geometry" />
        </mxCell>
        <mxCell id="oCaHh_Mgp-v5R5Bt4WXx-2" value="" style="html=1;points=[];perimeter=orthogonalPerimeter;outlineConnect=0;targetShapes=umlLifeline;portConstraint=eastwest;newEdgeStyle={&quot;edgeStyle&quot;:&quot;elbowEdgeStyle&quot;,&quot;elbow&quot;:&quot;vertical&quot;,&quot;curved&quot;:0,&quot;rounded&quot;:0};fontFamily=Arial;fontSize=14;" parent="oCaHh_Mgp-v5R5Bt4WXx-1" vertex="1">
          <mxGeometry x="35" y="80" width="10" height="90" as="geometry" />
        </mxCell>
        <mxCell id="oCaHh_Mgp-v5R5Bt4WXx-3" value="" style="shape=umlLifeline;perimeter=lifelinePerimeter;whiteSpace=wrap;html=1;container=1;dropTarget=0;collapsible=0;recursiveResize=0;outlineConnect=0;portConstraint=eastwest;newEdgeStyle={&quot;edgeStyle&quot;:&quot;elbowEdgeStyle&quot;,&quot;elbow&quot;:&quot;vertical&quot;,&quot;curved&quot;:0,&quot;rounded&quot;:0};participant=umlActor;size=60;fontFamily=Arial;" parent="1" vertex="1">
          <mxGeometry x="150" y="40" width="50" height="840" as="geometry" />
        </mxCell>
        <mxCell id="oCaHh_Mgp-v5R5Bt4WXx-4" value="" style="html=1;points=[];perimeter=orthogonalPerimeter;outlineConnect=0;targetShapes=umlLifeline;portConstraint=eastwest;newEdgeStyle={&quot;edgeStyle&quot;:&quot;elbowEdgeStyle&quot;,&quot;elbow&quot;:&quot;vertical&quot;,&quot;curved&quot;:0,&quot;rounded&quot;:0};fontFamily=Arial;" parent="oCaHh_Mgp-v5R5Bt4WXx-3" vertex="1">
          <mxGeometry x="20" y="80" width="10" height="740" as="geometry" />
        </mxCell>
        <mxCell id="oCaHh_Mgp-v5R5Bt4WXx-5" value="文档上传" style="shape=umlLifeline;perimeter=lifelinePerimeter;whiteSpace=wrap;html=1;container=0;dropTarget=0;collapsible=0;recursiveResize=0;outlineConnect=0;portConstraint=eastwest;newEdgeStyle={&quot;edgeStyle&quot;:&quot;elbowEdgeStyle&quot;,&quot;elbow&quot;:&quot;vertical&quot;,&quot;curved&quot;:0,&quot;rounded&quot;:0};fontFamily=Arial;" parent="1" vertex="1">
          <mxGeometry x="400" y="40" width="80" height="840" as="geometry" />
        </mxCell>
        <mxCell id="oCaHh_Mgp-v5R5Bt4WXx-6" value="" style="html=1;points=[];perimeter=orthogonalPerimeter;outlineConnect=0;targetShapes=umlLifeline;portConstraint=eastwest;newEdgeStyle={&quot;edgeStyle&quot;:&quot;elbowEdgeStyle&quot;,&quot;elbow&quot;:&quot;vertical&quot;,&quot;curved&quot;:0,&quot;rounded&quot;:0};fontFamily=Arial;" parent="oCaHh_Mgp-v5R5Bt4WXx-5" vertex="1">
          <mxGeometry x="35" y="80" width="10" height="440" as="geometry" />
        </mxCell>
        <mxCell id="bq0x6GT9hJLGu8Vqfxj3-5" value="&lt;font&gt;数据库&lt;/font&gt;" style="shape=umlLifeline;perimeter=lifelinePerimeter;whiteSpace=wrap;html=1;container=0;dropTarget=0;collapsible=0;recursiveResize=0;outlineConnect=0;portConstraint=eastwest;newEdgeStyle={&quot;edgeStyle&quot;:&quot;elbowEdgeStyle&quot;,&quot;elbow&quot;:&quot;vertical&quot;,&quot;curved&quot;:0,&quot;rounded&quot;:0};fontFamily=Arial;fontSize=14;" parent="1" vertex="1">
          <mxGeometry x="1000" y="40" width="120" height="840" as="geometry" />
        </mxCell>
        <mxCell id="bq0x6GT9hJLGu8Vqfxj3-6" value="" style="html=1;points=[];perimeter=orthogonalPerimeter;outlineConnect=0;targetShapes=umlLifeline;portConstraint=eastwest;newEdgeStyle={&quot;edgeStyle&quot;:&quot;elbowEdgeStyle&quot;,&quot;elbow&quot;:&quot;vertical&quot;,&quot;curved&quot;:0,&quot;rounded&quot;:0};fontFamily=Arial;" parent="bq0x6GT9hJLGu8Vqfxj3-5" vertex="1">
          <mxGeometry x="55" y="650" width="10" height="70" as="geometry" />
        </mxCell>
        <mxCell id="InAiwfExnqsudFVI87tM-1" style="edgeStyle=elbowEdgeStyle;rounded=0;orthogonalLoop=1;jettySize=auto;html=1;elbow=vertical;curved=0;fontFamily=Arial;fontSize=14;" parent="1" edge="1">
          <mxGeometry relative="1" as="geometry">
            <mxPoint x="180" y="141" as="sourcePoint" />
            <mxPoint x="315" y="141" as="targetPoint" />
          </mxGeometry>
        </mxCell>
        <mxCell id="InAiwfExnqsudFVI87tM-2" value="1.登录进入系统" style="edgeLabel;html=1;align=center;verticalAlign=middle;resizable=0;points=[];fontFamily=Arial;fontSize=14;" parent="InAiwfExnqsudFVI87tM-1" vertex="1" connectable="0">
          <mxGeometry x="-0.2179" y="4" relative="1" as="geometry">
            <mxPoint x="14" y="-6" as="offset" />
          </mxGeometry>
        </mxCell>
        <mxCell id="InAiwfExnqsudFVI87tM-3" style="edgeStyle=elbowEdgeStyle;rounded=0;orthogonalLoop=1;jettySize=auto;html=1;elbow=vertical;curved=0;fontFamily=Arial;fontSize=14;dashed=1;" parent="1" edge="1">
          <mxGeometry relative="1" as="geometry">
            <mxPoint x="315" y="190" as="sourcePoint" />
            <mxPoint x="180" y="190" as="targetPoint" />
            <Array as="points" />
          </mxGeometry>
        </mxCell>
        <mxCell id="InAiwfExnqsudFVI87tM-4" value="2.显示系统主界面" style="edgeLabel;html=1;align=center;verticalAlign=middle;resizable=0;points=[];fontFamily=Arial;fontSize=14;" parent="InAiwfExnqsudFVI87tM-3" vertex="1" connectable="0">
          <mxGeometry x="-0.1704" y="-2" relative="1" as="geometry">
            <mxPoint x="-7" y="-10" as="offset" />
          </mxGeometry>
        </mxCell>
        <mxCell id="InAiwfExnqsudFVI87tM-5" style="edgeStyle=elbowEdgeStyle;rounded=0;orthogonalLoop=1;jettySize=auto;html=1;elbow=vertical;curved=0;fontFamily=Arial;fontSize=14;" parent="1" edge="1">
          <mxGeometry relative="1" as="geometry">
            <mxPoint x="180" y="240" as="sourcePoint" />
            <mxPoint x="435" y="240" as="targetPoint" />
          </mxGeometry>
        </mxCell>
        <mxCell id="InAiwfExnqsudFVI87tM-6" value="3.点击上传按钮" style="edgeLabel;html=1;align=center;verticalAlign=middle;resizable=0;points=[];fontFamily=Arial;fontSize=14;" parent="InAiwfExnqsudFVI87tM-5" vertex="1" connectable="0">
          <mxGeometry x="0.3412" relative="1" as="geometry">
            <mxPoint x="-101" y="-10" as="offset" />
          </mxGeometry>
        </mxCell>
        <mxCell id="InAiwfExnqsudFVI87tM-7" style="edgeStyle=elbowEdgeStyle;rounded=0;orthogonalLoop=1;jettySize=auto;html=1;elbow=vertical;curved=0;fontFamily=Arial;fontSize=14;dashed=1;" parent="1" source="oCaHh_Mgp-v5R5Bt4WXx-6" target="oCaHh_Mgp-v5R5Bt4WXx-4" edge="1">
          <mxGeometry relative="1" as="geometry">
            <Array as="points">
              <mxPoint x="310" y="280" />
            </Array>
          </mxGeometry>
        </mxCell>
        <mxCell id="InAiwfExnqsudFVI87tM-8" value="4.显示选择文件窗口" style="edgeLabel;html=1;align=center;verticalAlign=middle;resizable=0;points=[];fontFamily=Arial;fontSize=14;" parent="InAiwfExnqsudFVI87tM-7" vertex="1" connectable="0">
          <mxGeometry x="-0.2078" y="-3" relative="1" as="geometry">
            <mxPoint y="-7" as="offset" />
          </mxGeometry>
        </mxCell>
        <mxCell id="InAiwfExnqsudFVI87tM-9" value="&lt;font&gt;loop&lt;/font&gt;" style="shape=umlFrame;whiteSpace=wrap;html=1;pointerEvents=0;fontFamily=Arial;fontSize=14;" parent="1" vertex="1">
          <mxGeometry x="150" y="310" width="310" height="80" as="geometry" />
        </mxCell>
        <mxCell id="InAiwfExnqsudFVI87tM-12" style="edgeStyle=elbowEdgeStyle;rounded=0;orthogonalLoop=1;jettySize=auto;html=1;elbow=vertical;curved=0;fontFamily=Arial;fontSize=14;" parent="1" source="oCaHh_Mgp-v5R5Bt4WXx-4" target="oCaHh_Mgp-v5R5Bt4WXx-6" edge="1">
          <mxGeometry relative="1" as="geometry">
            <mxPoint x="430" y="360" as="targetPoint" />
            <Array as="points">
              <mxPoint x="420" y="360" />
            </Array>
          </mxGeometry>
        </mxCell>
        <mxCell id="InAiwfExnqsudFVI87tM-13" value="5.选取文件（一个或多个）" style="edgeLabel;html=1;align=center;verticalAlign=middle;resizable=0;points=[];fontFamily=Arial;fontSize=14;" parent="InAiwfExnqsudFVI87tM-12" vertex="1" connectable="0">
          <mxGeometry x="0.1849" y="1" relative="1" as="geometry">
            <mxPoint x="-34" y="-19" as="offset" />
          </mxGeometry>
        </mxCell>
        <mxCell id="InAiwfExnqsudFVI87tM-14" style="edgeStyle=elbowEdgeStyle;rounded=0;orthogonalLoop=1;jettySize=auto;html=1;elbow=vertical;curved=0;entryX=1;entryY=0.6;entryDx=0;entryDy=0;entryPerimeter=0;fontFamily=Arial;fontSize=14;dashed=1;" parent="1" edge="1">
          <mxGeometry relative="1" as="geometry">
            <mxPoint x="435" y="431" as="sourcePoint" />
            <mxPoint x="180" y="431" as="targetPoint" />
          </mxGeometry>
        </mxCell>
        <mxCell id="InAiwfExnqsudFVI87tM-15" value="6.显示当前已选择文件列表" style="edgeLabel;html=1;align=center;verticalAlign=middle;resizable=0;points=[];fontFamily=Arial;fontSize=14;" parent="InAiwfExnqsudFVI87tM-14" vertex="1" connectable="0">
          <mxGeometry x="-0.3307" y="-3" relative="1" as="geometry">
            <mxPoint x="-30" y="-8" as="offset" />
          </mxGeometry>
        </mxCell>
        <mxCell id="InAiwfExnqsudFVI87tM-16" style="edgeStyle=elbowEdgeStyle;rounded=0;orthogonalLoop=1;jettySize=auto;html=1;elbow=vertical;curved=0;fontFamily=Arial;fontSize=14;" parent="1" edge="1">
          <mxGeometry relative="1" as="geometry">
            <mxPoint x="180" y="467" as="sourcePoint" />
            <mxPoint x="435" y="467" as="targetPoint" />
          </mxGeometry>
        </mxCell>
        <mxCell id="InAiwfExnqsudFVI87tM-17" value="7.点击提交按钮" style="edgeLabel;html=1;align=center;verticalAlign=middle;resizable=0;points=[];fontFamily=Arial;fontSize=14;" parent="InAiwfExnqsudFVI87tM-16" vertex="1" connectable="0">
          <mxGeometry x="0.4954" y="-1" relative="1" as="geometry">
            <mxPoint x="-46" y="-11" as="offset" />
          </mxGeometry>
        </mxCell>
        <mxCell id="InAiwfExnqsudFVI87tM-18" value="" style="edgeStyle=elbowEdgeStyle;rounded=0;orthogonalLoop=1;jettySize=auto;html=1;elbow=vertical;curved=0;fontFamily=Arial;" parent="1" edge="1">
          <mxGeometry relative="1" as="geometry">
            <mxPoint x="445" y="492" as="sourcePoint" />
            <mxPoint x="575" y="492" as="targetPoint" />
          </mxGeometry>
        </mxCell>
        <mxCell id="InAiwfExnqsudFVI87tM-19" value="&lt;font style=&quot;font-size: 14px;&quot;&gt;&lt;font&gt;8.&lt;/font&gt;&lt;font class=&quot;custom-cursor-default-hover&quot; style=&quot;&quot;&gt;发送上传请求&lt;/font&gt;&lt;br&gt;&lt;font class=&quot;custom-cursor-default-hover&quot; style=&quot;&quot;&gt;/upload&lt;/font&gt;&lt;/font&gt;" style="edgeLabel;html=1;align=center;verticalAlign=middle;resizable=0;points=[];fillColor=none;fontFamily=Arial;" parent="InAiwfExnqsudFVI87tM-18" vertex="1" connectable="0">
          <mxGeometry x="0.2667" relative="1" as="geometry">
            <mxPoint x="-17" y="-19" as="offset" />
          </mxGeometry>
        </mxCell>
        <mxCell id="2G6Tfzl2jYQfenaQ4rRj-2" style="edgeStyle=elbowEdgeStyle;rounded=0;orthogonalLoop=1;jettySize=auto;html=1;elbow=vertical;curved=0;fontFamily=Arial;" parent="1" target="QVMR5ZG-TsDF0v3o00qx-12" edge="1">
          <mxGeometry relative="1" as="geometry">
            <mxPoint x="585" y="539" as="sourcePoint" />
            <mxPoint x="735" y="539" as="targetPoint" />
            <Array as="points">
              <mxPoint x="720" y="520" />
            </Array>
          </mxGeometry>
        </mxCell>
        <mxCell id="2G6Tfzl2jYQfenaQ4rRj-3" value="9.documentUpload()" style="edgeLabel;html=1;align=center;verticalAlign=middle;resizable=0;points=[];fontFamily=Arial;fontSize=14;" parent="2G6Tfzl2jYQfenaQ4rRj-2" vertex="1" connectable="0">
          <mxGeometry x="-0.1871" y="-3" relative="1" as="geometry">
            <mxPoint x="14" y="-14" as="offset" />
          </mxGeometry>
        </mxCell>
        <mxCell id="2G6Tfzl2jYQfenaQ4rRj-4" style="edgeStyle=elbowEdgeStyle;rounded=0;orthogonalLoop=1;jettySize=auto;html=1;elbow=vertical;curved=0;fontFamily=Arial;" parent="1" target="QVMR5ZG-TsDF0v3o00qx-14" edge="1">
          <mxGeometry relative="1" as="geometry">
            <mxPoint x="750" y="530" as="sourcePoint" />
            <mxPoint x="900" y="530" as="targetPoint" />
          </mxGeometry>
        </mxCell>
        <mxCell id="2G6Tfzl2jYQfenaQ4rRj-5" value="10.uploadProcess()" style="edgeLabel;html=1;align=center;verticalAlign=middle;resizable=0;points=[];fontFamily=Arial;fontSize=14;" parent="2G6Tfzl2jYQfenaQ4rRj-4" vertex="1" connectable="0">
          <mxGeometry x="-0.1699" y="3" relative="1" as="geometry">
            <mxPoint x="11" y="-7" as="offset" />
          </mxGeometry>
        </mxCell>
        <mxCell id="QVMR5ZG-TsDF0v3o00qx-1" style="edgeStyle=elbowEdgeStyle;rounded=0;orthogonalLoop=1;jettySize=auto;html=1;elbow=vertical;curved=0;startArrow=none;fontFamily=Arial;" parent="1" source="OXMgViUx6tXXjFXbpooJ-1" target="bq0x6GT9hJLGu8Vqfxj3-6" edge="1">
          <mxGeometry relative="1" as="geometry">
            <mxPoint x="905" y="630" as="sourcePoint" />
            <mxPoint x="1050" y="630" as="targetPoint" />
            <Array as="points">
              <mxPoint x="1030" y="710" />
              <mxPoint x="980" y="630" />
            </Array>
          </mxGeometry>
        </mxCell>
        <mxCell id="QVMR5ZG-TsDF0v3o00qx-9" value="&lt;font class=&quot;custom-cursor-default-hover&quot; style=&quot;font-size: 13px;&quot;&gt;DocumentController&lt;/font&gt;" style="shape=umlLifeline;perimeter=lifelinePerimeter;whiteSpace=wrap;html=1;container=0;dropTarget=0;collapsible=0;recursiveResize=0;outlineConnect=0;portConstraint=eastwest;newEdgeStyle={&quot;edgeStyle&quot;:&quot;elbowEdgeStyle&quot;,&quot;elbow&quot;:&quot;vertical&quot;,&quot;curved&quot;:0,&quot;rounded&quot;:0};fontFamily=Arial;fontSize=14;" parent="1" vertex="1">
          <mxGeometry x="520" y="40" width="120" height="840" as="geometry" />
        </mxCell>
        <mxCell id="QVMR5ZG-TsDF0v3o00qx-10" value="" style="html=1;points=[];perimeter=orthogonalPerimeter;outlineConnect=0;targetShapes=umlLifeline;portConstraint=eastwest;newEdgeStyle={&quot;edgeStyle&quot;:&quot;elbowEdgeStyle&quot;,&quot;elbow&quot;:&quot;vertical&quot;,&quot;curved&quot;:0,&quot;rounded&quot;:0};fontFamily=Arial;" parent="QVMR5ZG-TsDF0v3o00qx-9" vertex="1">
          <mxGeometry x="55" y="420" width="10" height="380" as="geometry" />
        </mxCell>
        <mxCell id="QVMR5ZG-TsDF0v3o00qx-11" value="&lt;font class=&quot;custom-cursor-default-hover&quot; style=&quot;font-size: 13px;&quot;&gt;DocumentServiceImpl&lt;/font&gt;" style="shape=umlLifeline;perimeter=lifelinePerimeter;whiteSpace=wrap;html=1;container=0;dropTarget=0;collapsible=0;recursiveResize=0;outlineConnect=0;portConstraint=eastwest;newEdgeStyle={&quot;edgeStyle&quot;:&quot;elbowEdgeStyle&quot;,&quot;elbow&quot;:&quot;vertical&quot;,&quot;curved&quot;:0,&quot;rounded&quot;:0};fontFamily=Arial;fontSize=14;" parent="1" vertex="1">
          <mxGeometry x="680" y="40" width="130" height="840" as="geometry" />
        </mxCell>
        <mxCell id="QVMR5ZG-TsDF0v3o00qx-12" value="" style="html=1;points=[];perimeter=orthogonalPerimeter;outlineConnect=0;targetShapes=umlLifeline;portConstraint=eastwest;newEdgeStyle={&quot;edgeStyle&quot;:&quot;elbowEdgeStyle&quot;,&quot;elbow&quot;:&quot;vertical&quot;,&quot;curved&quot;:0,&quot;rounded&quot;:0};fontFamily=Arial;" parent="QVMR5ZG-TsDF0v3o00qx-11" vertex="1">
          <mxGeometry x="60" y="450" width="10" height="350" as="geometry" />
        </mxCell>
        <mxCell id="OXMgViUx6tXXjFXbpooJ-15" style="edgeStyle=elbowEdgeStyle;rounded=0;orthogonalLoop=1;jettySize=auto;html=1;elbow=vertical;curved=0;fontFamily=Arial;fontSize=14;entryX=1;entryY=0.486;entryDx=0;entryDy=0;entryPerimeter=0;" parent="QVMR5ZG-TsDF0v3o00qx-11" source="QVMR5ZG-TsDF0v3o00qx-12" target="QVMR5ZG-TsDF0v3o00qx-12" edge="1">
          <mxGeometry relative="1" as="geometry">
            <mxPoint x="80" y="610" as="targetPoint" />
            <Array as="points">
              <mxPoint x="80" y="540" />
            </Array>
          </mxGeometry>
        </mxCell>
        <mxCell id="OXMgViUx6tXXjFXbpooJ-16" value="12.&lt;font&gt;创建&lt;br&gt;文档对象&lt;/font&gt;" style="edgeLabel;html=1;align=center;verticalAlign=middle;resizable=0;points=[];fontSize=14;fontFamily=Arial;" parent="OXMgViUx6tXXjFXbpooJ-15" vertex="1" connectable="0">
          <mxGeometry x="-0.041" relative="1" as="geometry">
            <mxPoint x="30" y="2" as="offset" />
          </mxGeometry>
        </mxCell>
        <mxCell id="QVMR5ZG-TsDF0v3o00qx-13" value="OSS" style="shape=umlLifeline;perimeter=lifelinePerimeter;whiteSpace=wrap;html=1;container=0;dropTarget=0;collapsible=0;recursiveResize=0;outlineConnect=0;portConstraint=eastwest;newEdgeStyle={&quot;edgeStyle&quot;:&quot;elbowEdgeStyle&quot;,&quot;elbow&quot;:&quot;vertical&quot;,&quot;curved&quot;:0,&quot;rounded&quot;:0};fontFamily=Arial;fontSize=14;" parent="1" vertex="1">
          <mxGeometry x="840" y="430" width="120" height="160" as="geometry" />
        </mxCell>
        <mxCell id="QVMR5ZG-TsDF0v3o00qx-14" value="" style="html=1;points=[];perimeter=orthogonalPerimeter;outlineConnect=0;targetShapes=umlLifeline;portConstraint=eastwest;newEdgeStyle={&quot;edgeStyle&quot;:&quot;elbowEdgeStyle&quot;,&quot;elbow&quot;:&quot;vertical&quot;,&quot;curved&quot;:0,&quot;rounded&quot;:0};fontFamily=Arial;" parent="QVMR5ZG-TsDF0v3o00qx-13" vertex="1">
          <mxGeometry x="55" y="80" width="10" height="60" as="geometry" />
        </mxCell>
        <mxCell id="ho3rFQZqPgqzbpzYlnpT-3" value="" style="edgeStyle=elbowEdgeStyle;rounded=0;orthogonalLoop=1;jettySize=auto;html=1;elbow=vertical;curved=0;dashed=1;fontFamily=Arial;fontSize=14;" parent="1" edge="1">
          <mxGeometry relative="1" as="geometry">
            <mxPoint x="740" y="779" as="sourcePoint" />
            <mxPoint x="585" y="779" as="targetPoint" />
            <Array as="points">
              <mxPoint x="700" y="779" />
              <mxPoint x="610" y="769" />
            </Array>
          </mxGeometry>
        </mxCell>
        <mxCell id="ho3rFQZqPgqzbpzYlnpT-4" style="edgeStyle=elbowEdgeStyle;rounded=0;orthogonalLoop=1;jettySize=auto;html=1;elbow=vertical;curved=0;dashed=1;fontFamily=Arial;fontSize=14;" parent="1" source="QVMR5ZG-TsDF0v3o00qx-10" edge="1">
          <mxGeometry relative="1" as="geometry">
            <mxPoint x="325" y="800" as="targetPoint" />
            <Array as="points">
              <mxPoint x="530" y="800" />
            </Array>
          </mxGeometry>
        </mxCell>
        <mxCell id="ho3rFQZqPgqzbpzYlnpT-9" style="edgeStyle=elbowEdgeStyle;rounded=0;orthogonalLoop=1;jettySize=auto;html=1;elbow=vertical;curved=0;dashed=1;fontFamily=Arial;fontSize=14;" parent="1" edge="1">
          <mxGeometry relative="1" as="geometry">
            <mxPoint x="315" y="840" as="sourcePoint" />
            <mxPoint x="180" y="840" as="targetPoint" />
          </mxGeometry>
        </mxCell>
        <mxCell id="OXMgViUx6tXXjFXbpooJ-13" value="上传成功" style="edgeLabel;html=1;align=center;verticalAlign=middle;resizable=0;points=[];fontSize=14;fontFamily=Arial;" parent="ho3rFQZqPgqzbpzYlnpT-9" vertex="1" connectable="0">
          <mxGeometry x="-0.1957" y="2" relative="1" as="geometry">
            <mxPoint x="-11" y="8" as="offset" />
          </mxGeometry>
        </mxCell>
        <mxCell id="ho3rFQZqPgqzbpzYlnpT-8" value="" style="html=1;points=[];perimeter=orthogonalPerimeter;outlineConnect=0;targetShapes=umlLifeline;portConstraint=eastwest;newEdgeStyle={&quot;edgeStyle&quot;:&quot;elbowEdgeStyle&quot;,&quot;elbow&quot;:&quot;vertical&quot;,&quot;curved&quot;:0,&quot;rounded&quot;:0};fontFamily=Arial;" parent="1" vertex="1">
          <mxGeometry x="315" y="760" width="10" height="100" as="geometry" />
        </mxCell>
        <mxCell id="OXMgViUx6tXXjFXbpooJ-3" value="" style="edgeStyle=elbowEdgeStyle;rounded=0;orthogonalLoop=1;jettySize=auto;html=1;elbow=vertical;curved=0;endArrow=none;fontFamily=Arial;" parent="1" target="OXMgViUx6tXXjFXbpooJ-1" edge="1">
          <mxGeometry relative="1" as="geometry">
            <mxPoint x="905" y="630" as="sourcePoint" />
            <mxPoint x="1055" y="660" as="targetPoint" />
            <Array as="points" />
          </mxGeometry>
        </mxCell>
        <mxCell id="OXMgViUx6tXXjFXbpooJ-4" value="14.addItem()" style="edgeLabel;html=1;align=center;verticalAlign=middle;resizable=0;points=[];fontFamily=Arial;fontSize=14;" parent="OXMgViUx6tXXjFXbpooJ-3" vertex="1" connectable="0">
          <mxGeometry x="-0.16" y="-1" relative="1" as="geometry">
            <mxPoint x="68" y="66" as="offset" />
          </mxGeometry>
        </mxCell>
        <mxCell id="OXMgViUx6tXXjFXbpooJ-1" value="DocumentDAO" style="shape=umlLifeline;perimeter=lifelinePerimeter;whiteSpace=wrap;html=1;container=0;dropTarget=0;collapsible=0;recursiveResize=0;outlineConnect=0;portConstraint=eastwest;newEdgeStyle={&quot;edgeStyle&quot;:&quot;elbowEdgeStyle&quot;,&quot;elbow&quot;:&quot;vertical&quot;,&quot;curved&quot;:0,&quot;rounded&quot;:0};fontFamily=Arial;fontSize=14;" parent="1" vertex="1">
          <mxGeometry x="840" y="600" width="120" height="280" as="geometry" />
        </mxCell>
        <mxCell id="OXMgViUx6tXXjFXbpooJ-2" value="" style="html=1;points=[];perimeter=orthogonalPerimeter;outlineConnect=0;targetShapes=umlLifeline;portConstraint=eastwest;newEdgeStyle={&quot;edgeStyle&quot;:&quot;elbowEdgeStyle&quot;,&quot;elbow&quot;:&quot;vertical&quot;,&quot;curved&quot;:0,&quot;rounded&quot;:0};fontFamily=Arial;" parent="OXMgViUx6tXXjFXbpooJ-1" vertex="1">
          <mxGeometry x="55" y="70" width="10" height="110" as="geometry" />
        </mxCell>
        <mxCell id="OXMgViUx6tXXjFXbpooJ-5" style="edgeStyle=elbowEdgeStyle;rounded=0;orthogonalLoop=1;jettySize=auto;html=1;elbow=vertical;curved=0;dashed=1;fontFamily=Arial;fontSize=14;" parent="1" source="QVMR5ZG-TsDF0v3o00qx-14" target="QVMR5ZG-TsDF0v3o00qx-12" edge="1">
          <mxGeometry relative="1" as="geometry">
            <Array as="points">
              <mxPoint x="860" y="550" />
              <mxPoint x="830" y="560" />
            </Array>
          </mxGeometry>
        </mxCell>
        <mxCell id="OXMgViUx6tXXjFXbpooJ-6" value="&lt;font class=&quot;custom-cursor-default-hover&quot;&gt;11.&lt;/font&gt;返回&lt;font&gt;fileID&lt;/font&gt;" style="edgeLabel;html=1;align=center;verticalAlign=middle;resizable=0;points=[];fontSize=14;fontFamily=Arial;" parent="OXMgViUx6tXXjFXbpooJ-5" vertex="1" connectable="0">
          <mxGeometry x="-0.4116" y="-1" relative="1" as="geometry">
            <mxPoint x="-25" y="11" as="offset" />
          </mxGeometry>
        </mxCell>
        <mxCell id="OXMgViUx6tXXjFXbpooJ-8" style="edgeStyle=elbowEdgeStyle;rounded=0;orthogonalLoop=1;jettySize=auto;html=1;elbow=vertical;curved=0;fontFamily=Arial;" parent="1" edge="1">
          <mxGeometry relative="1" as="geometry">
            <mxPoint x="750" y="680" as="sourcePoint" />
            <mxPoint x="895" y="680" as="targetPoint" />
          </mxGeometry>
        </mxCell>
        <mxCell id="OXMgViUx6tXXjFXbpooJ-9" value="13.uploadProcess()" style="edgeLabel;html=1;align=center;verticalAlign=middle;resizable=0;points=[];fontFamily=Arial;fontSize=14;" parent="OXMgViUx6tXXjFXbpooJ-8" vertex="1" connectable="0">
          <mxGeometry x="-0.1699" y="3" relative="1" as="geometry">
            <mxPoint x="11" y="-7" as="offset" />
          </mxGeometry>
        </mxCell>
        <mxCell id="OXMgViUx6tXXjFXbpooJ-10" style="edgeStyle=elbowEdgeStyle;rounded=0;orthogonalLoop=1;jettySize=auto;html=1;elbow=vertical;curved=0;dashed=1;fontFamily=Arial;fontSize=14;" parent="1" source="bq0x6GT9hJLGu8Vqfxj3-6" target="OXMgViUx6tXXjFXbpooJ-2" edge="1">
          <mxGeometry relative="1" as="geometry">
            <Array as="points">
              <mxPoint x="960" y="730" />
              <mxPoint x="990" y="740" />
            </Array>
          </mxGeometry>
        </mxCell>
        <mxCell id="OXMgViUx6tXXjFXbpooJ-11" style="edgeStyle=elbowEdgeStyle;rounded=0;orthogonalLoop=1;jettySize=auto;html=1;elbow=vertical;curved=0;dashed=1;fontFamily=Arial;fontSize=14;" parent="1" source="OXMgViUx6tXXjFXbpooJ-2" target="QVMR5ZG-TsDF0v3o00qx-12" edge="1">
          <mxGeometry relative="1" as="geometry">
            <Array as="points">
              <mxPoint x="810" y="750" />
            </Array>
          </mxGeometry>
        </mxCell>
      </root>
    </mxGraphModel>
  </diagram>
  <diagram id="5siVbiJGrqa5y2Y0ft2R" name="文档下载">
    <mxGraphModel dx="1221" dy="636" grid="1" gridSize="10" guides="1" tooltips="1" connect="1" arrows="1" fold="1" page="1" pageScale="1" pageWidth="827" pageHeight="1169" math="0" shadow="0">
      <root>
        <mxCell id="0" />
        <mxCell id="1" parent="0" />
        <mxCell id="EwSGo4qGYbPlTqvoR_KC-1" value="&lt;font class=&quot;custom-cursor-default-hover&quot; style=&quot;font-size: 14px;&quot;&gt;文档列表&lt;/font&gt;" style="shape=umlLifeline;perimeter=lifelinePerimeter;whiteSpace=wrap;html=1;container=0;dropTarget=0;collapsible=0;recursiveResize=0;outlineConnect=0;portConstraint=eastwest;newEdgeStyle={&quot;edgeStyle&quot;:&quot;elbowEdgeStyle&quot;,&quot;elbow&quot;:&quot;vertical&quot;,&quot;curved&quot;:0,&quot;rounded&quot;:0};fontFamily=Arial;" parent="1" vertex="1">
          <mxGeometry x="280" y="40" width="80" height="1080" as="geometry" />
        </mxCell>
        <mxCell id="EwSGo4qGYbPlTqvoR_KC-2" value="" style="html=1;points=[];perimeter=orthogonalPerimeter;outlineConnect=0;targetShapes=umlLifeline;portConstraint=eastwest;newEdgeStyle={&quot;edgeStyle&quot;:&quot;elbowEdgeStyle&quot;,&quot;elbow&quot;:&quot;vertical&quot;,&quot;curved&quot;:0,&quot;rounded&quot;:0};fontFamily=Arial;fontSize=14;" parent="EwSGo4qGYbPlTqvoR_KC-1" vertex="1">
          <mxGeometry x="35" y="80" width="10" height="240" as="geometry" />
        </mxCell>
        <mxCell id="EwSGo4qGYbPlTqvoR_KC-3" value="" style="shape=umlLifeline;perimeter=lifelinePerimeter;whiteSpace=wrap;html=1;container=1;dropTarget=0;collapsible=0;recursiveResize=0;outlineConnect=0;portConstraint=eastwest;newEdgeStyle={&quot;edgeStyle&quot;:&quot;elbowEdgeStyle&quot;,&quot;elbow&quot;:&quot;vertical&quot;,&quot;curved&quot;:0,&quot;rounded&quot;:0};participant=umlActor;size=60;fontFamily=Arial;" parent="1" vertex="1">
          <mxGeometry x="150" y="40" width="50" height="1080" as="geometry" />
        </mxCell>
        <mxCell id="EwSGo4qGYbPlTqvoR_KC-4" value="" style="html=1;points=[];perimeter=orthogonalPerimeter;outlineConnect=0;targetShapes=umlLifeline;portConstraint=eastwest;newEdgeStyle={&quot;edgeStyle&quot;:&quot;elbowEdgeStyle&quot;,&quot;elbow&quot;:&quot;vertical&quot;,&quot;curved&quot;:0,&quot;rounded&quot;:0};fontFamily=Arial;" parent="EwSGo4qGYbPlTqvoR_KC-3" vertex="1">
          <mxGeometry x="20" y="80" width="10" height="980" as="geometry" />
        </mxCell>
        <mxCell id="EwSGo4qGYbPlTqvoR_KC-5" value="文档下载" style="shape=umlLifeline;perimeter=lifelinePerimeter;whiteSpace=wrap;html=1;container=0;dropTarget=0;collapsible=0;recursiveResize=0;outlineConnect=0;portConstraint=eastwest;newEdgeStyle={&quot;edgeStyle&quot;:&quot;elbowEdgeStyle&quot;,&quot;elbow&quot;:&quot;vertical&quot;,&quot;curved&quot;:0,&quot;rounded&quot;:0};fontFamily=Arial;" parent="1" vertex="1">
          <mxGeometry x="400" y="360" width="80" height="310" as="geometry" />
        </mxCell>
        <mxCell id="EwSGo4qGYbPlTqvoR_KC-6" value="" style="html=1;points=[];perimeter=orthogonalPerimeter;outlineConnect=0;targetShapes=umlLifeline;portConstraint=eastwest;newEdgeStyle={&quot;edgeStyle&quot;:&quot;elbowEdgeStyle&quot;,&quot;elbow&quot;:&quot;vertical&quot;,&quot;curved&quot;:0,&quot;rounded&quot;:0};fontFamily=Arial;" parent="EwSGo4qGYbPlTqvoR_KC-5" vertex="1">
          <mxGeometry x="35" y="50" width="10" height="230" as="geometry" />
        </mxCell>
        <mxCell id="EwSGo4qGYbPlTqvoR_KC-13" value="&lt;font&gt;数据库&lt;/font&gt;" style="shape=umlLifeline;perimeter=lifelinePerimeter;whiteSpace=wrap;html=1;container=0;dropTarget=0;collapsible=0;recursiveResize=0;outlineConnect=0;portConstraint=eastwest;newEdgeStyle={&quot;edgeStyle&quot;:&quot;elbowEdgeStyle&quot;,&quot;elbow&quot;:&quot;vertical&quot;,&quot;curved&quot;:0,&quot;rounded&quot;:0};fontFamily=Arial;fontSize=14;" parent="1" vertex="1">
          <mxGeometry x="1000" y="40" width="120" height="710" as="geometry" />
        </mxCell>
        <mxCell id="EwSGo4qGYbPlTqvoR_KC-14" value="" style="html=1;points=[];perimeter=orthogonalPerimeter;outlineConnect=0;targetShapes=umlLifeline;portConstraint=eastwest;newEdgeStyle={&quot;edgeStyle&quot;:&quot;elbowEdgeStyle&quot;,&quot;elbow&quot;:&quot;vertical&quot;,&quot;curved&quot;:0,&quot;rounded&quot;:0};fontFamily=Arial;" parent="EwSGo4qGYbPlTqvoR_KC-13" vertex="1">
          <mxGeometry x="55" y="170" width="10" height="510" as="geometry" />
        </mxCell>
        <mxCell id="EwSGo4qGYbPlTqvoR_KC-15" style="edgeStyle=elbowEdgeStyle;rounded=0;orthogonalLoop=1;jettySize=auto;html=1;elbow=vertical;curved=0;fontFamily=Arial;fontSize=14;" parent="1" edge="1">
          <mxGeometry relative="1" as="geometry">
            <mxPoint x="180" y="141" as="sourcePoint" />
            <mxPoint x="315" y="141" as="targetPoint" />
          </mxGeometry>
        </mxCell>
        <mxCell id="EwSGo4qGYbPlTqvoR_KC-16" value="1.查看文档列表" style="edgeLabel;html=1;align=center;verticalAlign=middle;resizable=0;points=[];fontFamily=Arial;fontSize=14;" parent="EwSGo4qGYbPlTqvoR_KC-15" vertex="1" connectable="0">
          <mxGeometry x="-0.2179" y="4" relative="1" as="geometry">
            <mxPoint x="14" y="-6" as="offset" />
          </mxGeometry>
        </mxCell>
        <mxCell id="EwSGo4qGYbPlTqvoR_KC-19" style="edgeStyle=elbowEdgeStyle;rounded=0;orthogonalLoop=1;jettySize=auto;html=1;elbow=vertical;curved=0;fontFamily=Arial;fontSize=14;" parent="1" edge="1">
          <mxGeometry relative="1" as="geometry">
            <mxPoint x="180" y="516" as="sourcePoint" />
            <mxPoint x="435" y="516" as="targetPoint" />
          </mxGeometry>
        </mxCell>
        <mxCell id="EwSGo4qGYbPlTqvoR_KC-20" value="11.点击下载/批量下载按钮" style="edgeLabel;html=1;align=center;verticalAlign=middle;resizable=0;points=[];fontFamily=Arial;fontSize=14;" parent="EwSGo4qGYbPlTqvoR_KC-19" vertex="1" connectable="0">
          <mxGeometry x="0.3412" relative="1" as="geometry">
            <mxPoint x="-51" y="-15" as="offset" />
          </mxGeometry>
        </mxCell>
        <mxCell id="EwSGo4qGYbPlTqvoR_KC-21" style="edgeStyle=elbowEdgeStyle;rounded=0;orthogonalLoop=1;jettySize=auto;html=1;elbow=vertical;curved=0;fontFamily=Arial;fontSize=14;dashed=1;" parent="1" edge="1">
          <mxGeometry relative="1" as="geometry">
            <Array as="points">
              <mxPoint x="380" y="532" />
              <mxPoint x="370" y="542" />
              <mxPoint x="260" y="555" />
            </Array>
            <mxPoint x="435" y="532" as="sourcePoint" />
            <mxPoint x="180" y="532" as="targetPoint" />
          </mxGeometry>
        </mxCell>
        <mxCell id="EwSGo4qGYbPlTqvoR_KC-22" value="12.弹出确认操作窗口" style="edgeLabel;html=1;align=center;verticalAlign=middle;resizable=0;points=[];fontFamily=Arial;fontSize=14;" parent="EwSGo4qGYbPlTqvoR_KC-21" vertex="1" connectable="0">
          <mxGeometry x="-0.2078" y="-3" relative="1" as="geometry">
            <mxPoint x="-29" y="13" as="offset" />
          </mxGeometry>
        </mxCell>
        <mxCell id="EwSGo4qGYbPlTqvoR_KC-24" style="edgeStyle=elbowEdgeStyle;rounded=0;orthogonalLoop=1;jettySize=auto;html=1;elbow=vertical;curved=0;fontFamily=Arial;fontSize=14;" parent="1" edge="1">
          <mxGeometry relative="1" as="geometry">
            <mxPoint x="435" y="584.0000000000001" as="targetPoint" />
            <Array as="points">
              <mxPoint x="420" y="584.0000000000001" />
            </Array>
            <mxPoint x="180" y="584.0000000000001" as="sourcePoint" />
          </mxGeometry>
        </mxCell>
        <mxCell id="EwSGo4qGYbPlTqvoR_KC-25" value="13.点击确认" style="edgeLabel;html=1;align=center;verticalAlign=middle;resizable=0;points=[];fontFamily=Arial;fontSize=14;" parent="EwSGo4qGYbPlTqvoR_KC-24" vertex="1" connectable="0">
          <mxGeometry x="0.1849" y="1" relative="1" as="geometry">
            <mxPoint x="-61" y="-9" as="offset" />
          </mxGeometry>
        </mxCell>
        <mxCell id="EwSGo4qGYbPlTqvoR_KC-30" value="" style="edgeStyle=elbowEdgeStyle;rounded=0;orthogonalLoop=1;jettySize=auto;html=1;elbow=vertical;curved=0;fontFamily=Arial;" parent="1" edge="1">
          <mxGeometry relative="1" as="geometry">
            <mxPoint x="445" y="593.6700000000001" as="sourcePoint" />
            <mxPoint x="575" y="593.6700000000001" as="targetPoint" />
          </mxGeometry>
        </mxCell>
        <mxCell id="EwSGo4qGYbPlTqvoR_KC-31" value="&lt;font class=&quot;custom-cursor-default-hover&quot; style=&quot;font-size: 14px;&quot;&gt;&lt;font&gt;14.&lt;/font&gt;&lt;font class=&quot;custom-cursor-default-hover&quot; style=&quot;&quot;&gt;发送下载请求&lt;br&gt;&lt;/font&gt;/download&lt;br&gt;&lt;/font&gt;" style="edgeLabel;html=1;align=center;verticalAlign=middle;resizable=0;points=[];fillColor=none;fontFamily=Arial;" parent="EwSGo4qGYbPlTqvoR_KC-30" vertex="1" connectable="0">
          <mxGeometry x="0.2667" relative="1" as="geometry">
            <mxPoint x="-17" y="-21" as="offset" />
          </mxGeometry>
        </mxCell>
        <mxCell id="EwSGo4qGYbPlTqvoR_KC-32" style="edgeStyle=elbowEdgeStyle;rounded=0;orthogonalLoop=1;jettySize=auto;html=1;elbow=vertical;curved=0;fontFamily=Arial;" parent="1" target="EwSGo4qGYbPlTqvoR_KC-47" edge="1">
          <mxGeometry relative="1" as="geometry">
            <mxPoint x="585" y="624.0000000000001" as="sourcePoint" />
            <mxPoint x="735" y="624.0000000000001" as="targetPoint" />
          </mxGeometry>
        </mxCell>
        <mxCell id="EwSGo4qGYbPlTqvoR_KC-33" value="15.documentDownload()" style="edgeLabel;html=1;align=center;verticalAlign=middle;resizable=0;points=[];fontFamily=Arial;fontSize=14;" parent="EwSGo4qGYbPlTqvoR_KC-32" vertex="1" connectable="0">
          <mxGeometry x="-0.1871" y="-3" relative="1" as="geometry">
            <mxPoint x="14" y="-17" as="offset" />
          </mxGeometry>
        </mxCell>
        <mxCell id="EwSGo4qGYbPlTqvoR_KC-34" style="edgeStyle=elbowEdgeStyle;rounded=0;orthogonalLoop=1;jettySize=auto;html=1;elbow=vertical;curved=0;fontFamily=Arial;" parent="1" edge="1">
          <mxGeometry relative="1" as="geometry">
            <mxPoint x="745" y="645.0000000000001" as="sourcePoint" />
            <mxPoint x="895" y="645.0000000000001" as="targetPoint" />
          </mxGeometry>
        </mxCell>
        <mxCell id="EwSGo4qGYbPlTqvoR_KC-35" value="16.downloadProcess()" style="edgeLabel;html=1;align=center;verticalAlign=middle;resizable=0;points=[];fontFamily=Arial;fontSize=14;" parent="EwSGo4qGYbPlTqvoR_KC-34" vertex="1" connectable="0">
          <mxGeometry x="-0.1699" y="3" relative="1" as="geometry">
            <mxPoint x="11" y="-12" as="offset" />
          </mxGeometry>
        </mxCell>
        <mxCell id="EwSGo4qGYbPlTqvoR_KC-36" style="edgeStyle=elbowEdgeStyle;rounded=0;orthogonalLoop=1;jettySize=auto;html=1;elbow=vertical;curved=0;fontFamily=Arial;" parent="1" edge="1">
          <mxGeometry relative="1" as="geometry">
            <mxPoint x="905" y="671.5000000000001" as="sourcePoint" />
            <mxPoint x="1055" y="671.5000000000001" as="targetPoint" />
            <Array as="points">
              <mxPoint x="980" y="671.5000000000001" />
            </Array>
          </mxGeometry>
        </mxCell>
        <mxCell id="EwSGo4qGYbPlTqvoR_KC-37" value="17.findByID()" style="edgeLabel;html=1;align=center;verticalAlign=middle;resizable=0;points=[];fontFamily=Arial;fontSize=14;" parent="EwSGo4qGYbPlTqvoR_KC-36" vertex="1" connectable="0">
          <mxGeometry x="-0.16" y="-1" relative="1" as="geometry">
            <mxPoint x="10" y="-12" as="offset" />
          </mxGeometry>
        </mxCell>
        <mxCell id="EwSGo4qGYbPlTqvoR_KC-44" value="&lt;font class=&quot;custom-cursor-default-hover&quot; style=&quot;font-size: 13px;&quot;&gt;DocumentController&lt;/font&gt;" style="shape=umlLifeline;perimeter=lifelinePerimeter;whiteSpace=wrap;html=1;container=0;dropTarget=0;collapsible=0;recursiveResize=0;outlineConnect=0;portConstraint=eastwest;newEdgeStyle={&quot;edgeStyle&quot;:&quot;elbowEdgeStyle&quot;,&quot;elbow&quot;:&quot;vertical&quot;,&quot;curved&quot;:0,&quot;rounded&quot;:0};fontFamily=Arial;fontSize=13;" parent="1" vertex="1">
          <mxGeometry x="520" y="40" width="120" height="1080" as="geometry" />
        </mxCell>
        <mxCell id="EwSGo4qGYbPlTqvoR_KC-45" value="" style="html=1;points=[];perimeter=orthogonalPerimeter;outlineConnect=0;targetShapes=umlLifeline;portConstraint=eastwest;newEdgeStyle={&quot;edgeStyle&quot;:&quot;elbowEdgeStyle&quot;,&quot;elbow&quot;:&quot;vertical&quot;,&quot;curved&quot;:0,&quot;rounded&quot;:0};fontFamily=Arial;" parent="EwSGo4qGYbPlTqvoR_KC-44" vertex="1">
          <mxGeometry x="55" y="90" width="10" height="910" as="geometry" />
        </mxCell>
        <mxCell id="EwSGo4qGYbPlTqvoR_KC-46" value="&lt;font class=&quot;custom-cursor-default-hover&quot; style=&quot;font-size: 13px;&quot;&gt;DocumentServiceImpl&lt;/font&gt;" style="shape=umlLifeline;perimeter=lifelinePerimeter;whiteSpace=wrap;html=1;container=0;dropTarget=0;collapsible=0;recursiveResize=0;outlineConnect=0;portConstraint=eastwest;newEdgeStyle={&quot;edgeStyle&quot;:&quot;elbowEdgeStyle&quot;,&quot;elbow&quot;:&quot;vertical&quot;,&quot;curved&quot;:0,&quot;rounded&quot;:0};fontFamily=Arial;fontSize=13;" parent="1" vertex="1">
          <mxGeometry x="680" y="40" width="130" height="1080" as="geometry" />
        </mxCell>
        <mxCell id="EwSGo4qGYbPlTqvoR_KC-47" value="" style="html=1;points=[];perimeter=orthogonalPerimeter;outlineConnect=0;targetShapes=umlLifeline;portConstraint=eastwest;newEdgeStyle={&quot;edgeStyle&quot;:&quot;elbowEdgeStyle&quot;,&quot;elbow&quot;:&quot;vertical&quot;,&quot;curved&quot;:0,&quot;rounded&quot;:0};fontFamily=Arial;" parent="EwSGo4qGYbPlTqvoR_KC-46" vertex="1">
          <mxGeometry x="60" y="111.33" width="10" height="868.67" as="geometry" />
        </mxCell>
        <mxCell id="EwSGo4qGYbPlTqvoR_KC-48" value="DocumentDAO" style="shape=umlLifeline;perimeter=lifelinePerimeter;whiteSpace=wrap;html=1;container=0;dropTarget=0;collapsible=0;recursiveResize=0;outlineConnect=0;portConstraint=eastwest;newEdgeStyle={&quot;edgeStyle&quot;:&quot;elbowEdgeStyle&quot;,&quot;elbow&quot;:&quot;vertical&quot;,&quot;curved&quot;:0,&quot;rounded&quot;:0};fontFamily=Arial;fontSize=14;" parent="1" vertex="1">
          <mxGeometry x="840" y="40" width="120" height="710" as="geometry" />
        </mxCell>
        <mxCell id="EwSGo4qGYbPlTqvoR_KC-49" value="" style="html=1;points=[];perimeter=orthogonalPerimeter;outlineConnect=0;targetShapes=umlLifeline;portConstraint=eastwest;newEdgeStyle={&quot;edgeStyle&quot;:&quot;elbowEdgeStyle&quot;,&quot;elbow&quot;:&quot;vertical&quot;,&quot;curved&quot;:0,&quot;rounded&quot;:0};fontFamily=Arial;" parent="EwSGo4qGYbPlTqvoR_KC-48" vertex="1">
          <mxGeometry x="55" y="140" width="10" height="540" as="geometry" />
        </mxCell>
        <mxCell id="EwSGo4qGYbPlTqvoR_KC-50" style="edgeStyle=elbowEdgeStyle;rounded=0;orthogonalLoop=1;jettySize=auto;html=1;elbow=vertical;curved=0;fontFamily=Arial;fontSize=14;dashed=1;" parent="1" edge="1">
          <mxGeometry relative="1" as="geometry">
            <Array as="points">
              <mxPoint x="1020" y="695.0000000000001" />
            </Array>
            <mxPoint x="1055" y="695.0000000000001" as="sourcePoint" />
            <mxPoint x="905" y="695.0000000000001" as="targetPoint" />
          </mxGeometry>
        </mxCell>
        <mxCell id="gihAzams7Qu9K8A9bFX0-4" value="18.返回文档对象" style="edgeLabel;html=1;align=center;verticalAlign=middle;resizable=0;points=[];fontSize=14;fontFamily=Arial;" parent="EwSGo4qGYbPlTqvoR_KC-50" vertex="1" connectable="0">
          <mxGeometry x="0.1556" y="3" relative="1" as="geometry">
            <mxPoint x="12" y="9" as="offset" />
          </mxGeometry>
        </mxCell>
        <mxCell id="EwSGo4qGYbPlTqvoR_KC-51" style="edgeStyle=elbowEdgeStyle;rounded=0;orthogonalLoop=1;jettySize=auto;html=1;elbow=vertical;curved=0;dashed=1;fontFamily=Arial;fontSize=14;" parent="1" source="gihAzams7Qu9K8A9bFX0-6" edge="1">
          <mxGeometry relative="1" as="geometry">
            <mxPoint x="890" y="853" as="sourcePoint" />
            <mxPoint x="750" y="853.0000000000001" as="targetPoint" />
          </mxGeometry>
        </mxCell>
        <mxCell id="gihAzams7Qu9K8A9bFX0-20" value="22.返回文件" style="edgeLabel;html=1;align=center;verticalAlign=middle;resizable=0;points=[];fontSize=14;fontFamily=Arial;" parent="EwSGo4qGYbPlTqvoR_KC-51" vertex="1" connectable="0">
          <mxGeometry x="-0.5511" y="-1" relative="1" as="geometry">
            <mxPoint x="-39" y="12" as="offset" />
          </mxGeometry>
        </mxCell>
        <mxCell id="EwSGo4qGYbPlTqvoR_KC-52" value="" style="edgeStyle=elbowEdgeStyle;rounded=0;orthogonalLoop=1;jettySize=auto;html=1;elbow=vertical;curved=0;dashed=1;fontFamily=Arial;fontSize=14;" parent="1" edge="1">
          <mxGeometry relative="1" as="geometry">
            <Array as="points">
              <mxPoint x="610" y="991.6700000000001" />
            </Array>
            <mxPoint x="735" y="991.6700000000001" as="sourcePoint" />
            <mxPoint x="585" y="991.6700000000001" as="targetPoint" />
          </mxGeometry>
        </mxCell>
        <mxCell id="gihAzams7Qu9K8A9bFX0-22" value="24.返回文件" style="edgeLabel;html=1;align=center;verticalAlign=middle;resizable=0;points=[];fontSize=14;fontFamily=Arial;" parent="EwSGo4qGYbPlTqvoR_KC-52" vertex="1" connectable="0">
          <mxGeometry x="0.2076" y="-2" relative="1" as="geometry">
            <mxPoint x="16" y="10" as="offset" />
          </mxGeometry>
        </mxCell>
        <mxCell id="EwSGo4qGYbPlTqvoR_KC-53" style="edgeStyle=elbowEdgeStyle;rounded=0;orthogonalLoop=1;jettySize=auto;html=1;elbow=vertical;curved=0;dashed=1;fontFamily=Arial;fontSize=14;" parent="1" edge="1">
          <mxGeometry relative="1" as="geometry">
            <mxPoint x="325" y="1020.6700000000001" as="targetPoint" />
            <Array as="points">
              <mxPoint x="530" y="1020.6700000000001" />
            </Array>
            <mxPoint x="575" y="1020.6700000000001" as="sourcePoint" />
          </mxGeometry>
        </mxCell>
        <mxCell id="gihAzams7Qu9K8A9bFX0-23" value="25.传输文件" style="edgeLabel;html=1;align=center;verticalAlign=middle;resizable=0;points=[];fontSize=14;fontFamily=Arial;" parent="EwSGo4qGYbPlTqvoR_KC-53" vertex="1" connectable="0">
          <mxGeometry x="0.0557" y="1" relative="1" as="geometry">
            <mxPoint y="9" as="offset" />
          </mxGeometry>
        </mxCell>
        <mxCell id="EwSGo4qGYbPlTqvoR_KC-54" style="edgeStyle=elbowEdgeStyle;rounded=0;orthogonalLoop=1;jettySize=auto;html=1;elbow=vertical;curved=0;dashed=1;fontFamily=Arial;fontSize=14;" parent="1" edge="1">
          <mxGeometry relative="1" as="geometry">
            <mxPoint x="315" y="1050.67" as="sourcePoint" />
            <mxPoint x="180" y="1050.67" as="targetPoint" />
          </mxGeometry>
        </mxCell>
        <mxCell id="gihAzams7Qu9K8A9bFX0-24" value="26.下载成功" style="edgeLabel;html=1;align=center;verticalAlign=middle;resizable=0;points=[];fontSize=14;fontFamily=Arial;" parent="EwSGo4qGYbPlTqvoR_KC-54" vertex="1" connectable="0">
          <mxGeometry x="-0.4251" y="2" relative="1" as="geometry">
            <mxPoint x="-22" y="8" as="offset" />
          </mxGeometry>
        </mxCell>
        <mxCell id="EwSGo4qGYbPlTqvoR_KC-55" value="" style="html=1;points=[];perimeter=orthogonalPerimeter;outlineConnect=0;targetShapes=umlLifeline;portConstraint=eastwest;newEdgeStyle={&quot;edgeStyle&quot;:&quot;elbowEdgeStyle&quot;,&quot;elbow&quot;:&quot;vertical&quot;,&quot;curved&quot;:0,&quot;rounded&quot;:0};fontFamily=Arial;" parent="1" vertex="1">
          <mxGeometry x="315" y="968.6700000000001" width="10" height="100" as="geometry" />
        </mxCell>
        <mxCell id="NR_m3aeMxa1FmbKq55WK-4" style="edgeStyle=elbowEdgeStyle;rounded=0;orthogonalLoop=1;jettySize=auto;html=1;elbow=vertical;curved=0;fontFamily=Arial;fontSize=14;" parent="1" source="EwSGo4qGYbPlTqvoR_KC-2" target="EwSGo4qGYbPlTqvoR_KC-45" edge="1">
          <mxGeometry relative="1" as="geometry">
            <Array as="points">
              <mxPoint x="470" y="160" />
            </Array>
          </mxGeometry>
        </mxCell>
        <mxCell id="NR_m3aeMxa1FmbKq55WK-5" value="2.获取文档列表&lt;br&gt;&lt;font class=&quot;custom-cursor-default-hover&quot;&gt;/list&lt;/font&gt;" style="text;html=1;align=center;verticalAlign=middle;resizable=0;points=[];autosize=1;strokeColor=none;fillColor=none;fontSize=14;fontFamily=Arial;" parent="1" vertex="1">
          <mxGeometry x="390" y="135" width="120" height="50" as="geometry" />
        </mxCell>
        <mxCell id="NR_m3aeMxa1FmbKq55WK-6" style="edgeStyle=elbowEdgeStyle;rounded=0;orthogonalLoop=1;jettySize=auto;html=1;elbow=vertical;curved=0;fontFamily=Arial;fontSize=14;" parent="1" source="EwSGo4qGYbPlTqvoR_KC-45" target="EwSGo4qGYbPlTqvoR_KC-47" edge="1">
          <mxGeometry relative="1" as="geometry">
            <Array as="points">
              <mxPoint x="680" y="180" />
            </Array>
          </mxGeometry>
        </mxCell>
        <mxCell id="NR_m3aeMxa1FmbKq55WK-17" value="3.getDocList()" style="edgeLabel;html=1;align=center;verticalAlign=middle;resizable=0;points=[];fontSize=14;fontFamily=Arial;" parent="NR_m3aeMxa1FmbKq55WK-6" vertex="1" connectable="0">
          <mxGeometry x="-0.0935" relative="1" as="geometry">
            <mxPoint y="-10" as="offset" />
          </mxGeometry>
        </mxCell>
        <mxCell id="NR_m3aeMxa1FmbKq55WK-7" style="edgeStyle=elbowEdgeStyle;rounded=0;orthogonalLoop=1;jettySize=auto;html=1;elbow=vertical;curved=0;fontFamily=Arial;fontSize=14;" parent="1" source="EwSGo4qGYbPlTqvoR_KC-47" target="EwSGo4qGYbPlTqvoR_KC-49" edge="1">
          <mxGeometry relative="1" as="geometry">
            <Array as="points">
              <mxPoint x="860" y="200" />
            </Array>
          </mxGeometry>
        </mxCell>
        <mxCell id="NR_m3aeMxa1FmbKq55WK-18" value="4.getList()" style="edgeLabel;html=1;align=center;verticalAlign=middle;resizable=0;points=[];fontSize=14;fontFamily=Arial;" parent="NR_m3aeMxa1FmbKq55WK-7" vertex="1" connectable="0">
          <mxGeometry x="0.0267" y="4" relative="1" as="geometry">
            <mxPoint x="5" y="-11" as="offset" />
          </mxGeometry>
        </mxCell>
        <mxCell id="NR_m3aeMxa1FmbKq55WK-8" style="edgeStyle=elbowEdgeStyle;rounded=0;orthogonalLoop=1;jettySize=auto;html=1;elbow=vertical;curved=0;fontFamily=Arial;fontSize=14;" parent="1" source="EwSGo4qGYbPlTqvoR_KC-49" target="EwSGo4qGYbPlTqvoR_KC-14" edge="1">
          <mxGeometry relative="1" as="geometry">
            <Array as="points">
              <mxPoint x="1020" y="220" />
            </Array>
          </mxGeometry>
        </mxCell>
        <mxCell id="NR_m3aeMxa1FmbKq55WK-19" value="5.findAll()" style="edgeLabel;html=1;align=center;verticalAlign=middle;resizable=0;points=[];fontSize=14;fontFamily=Arial;" parent="NR_m3aeMxa1FmbKq55WK-8" vertex="1" connectable="0">
          <mxGeometry x="-0.0267" y="4" relative="1" as="geometry">
            <mxPoint x="12" y="-6" as="offset" />
          </mxGeometry>
        </mxCell>
        <mxCell id="NR_m3aeMxa1FmbKq55WK-9" style="edgeStyle=elbowEdgeStyle;rounded=0;orthogonalLoop=1;jettySize=auto;html=1;elbow=vertical;curved=0;fontFamily=Arial;fontSize=14;dashed=1;" parent="1" edge="1">
          <mxGeometry relative="1" as="geometry">
            <mxPoint x="1055" y="245" as="sourcePoint" />
            <mxPoint x="905" y="245" as="targetPoint" />
            <Array as="points">
              <mxPoint x="950" y="245" />
            </Array>
          </mxGeometry>
        </mxCell>
        <mxCell id="NR_m3aeMxa1FmbKq55WK-20" value="6.返回文档对象列表" style="edgeLabel;html=1;align=center;verticalAlign=middle;resizable=0;points=[];fontSize=14;fontFamily=Arial;" parent="NR_m3aeMxa1FmbKq55WK-9" vertex="1" connectable="0">
          <mxGeometry x="-0.1733" y="-1" relative="1" as="geometry">
            <mxPoint x="-13" y="16" as="offset" />
          </mxGeometry>
        </mxCell>
        <mxCell id="NR_m3aeMxa1FmbKq55WK-10" style="edgeStyle=elbowEdgeStyle;rounded=0;orthogonalLoop=1;jettySize=auto;html=1;elbow=vertical;curved=0;fontFamily=Arial;fontSize=14;dashed=1;" parent="1" source="EwSGo4qGYbPlTqvoR_KC-49" target="EwSGo4qGYbPlTqvoR_KC-47" edge="1">
          <mxGeometry relative="1" as="geometry">
            <Array as="points">
              <mxPoint x="840" y="260" />
            </Array>
          </mxGeometry>
        </mxCell>
        <mxCell id="NR_m3aeMxa1FmbKq55WK-21" value="7.返回文档对象列表" style="edgeLabel;html=1;align=center;verticalAlign=middle;resizable=0;points=[];fontSize=14;fontFamily=Arial;" parent="NR_m3aeMxa1FmbKq55WK-10" vertex="1" connectable="0">
          <mxGeometry x="-0.04" y="4" relative="1" as="geometry">
            <mxPoint x="4" y="6" as="offset" />
          </mxGeometry>
        </mxCell>
        <mxCell id="NR_m3aeMxa1FmbKq55WK-11" style="edgeStyle=elbowEdgeStyle;rounded=0;orthogonalLoop=1;jettySize=auto;html=1;elbow=vertical;curved=0;fontFamily=Arial;fontSize=14;dashed=1;" parent="1" source="EwSGo4qGYbPlTqvoR_KC-47" target="EwSGo4qGYbPlTqvoR_KC-45" edge="1">
          <mxGeometry relative="1" as="geometry">
            <Array as="points">
              <mxPoint x="700" y="280" />
            </Array>
          </mxGeometry>
        </mxCell>
        <mxCell id="NR_m3aeMxa1FmbKq55WK-15" style="edgeStyle=elbowEdgeStyle;rounded=0;orthogonalLoop=1;jettySize=auto;html=1;elbow=vertical;curved=0;fontFamily=Arial;fontSize=14;dashed=1;" parent="1" source="EwSGo4qGYbPlTqvoR_KC-45" target="EwSGo4qGYbPlTqvoR_KC-2" edge="1">
          <mxGeometry relative="1" as="geometry">
            <Array as="points">
              <mxPoint x="370" y="300" />
              <mxPoint x="460" y="310" />
            </Array>
          </mxGeometry>
        </mxCell>
        <mxCell id="NR_m3aeMxa1FmbKq55WK-24" value="9.返回文档列表" style="edgeLabel;html=1;align=center;verticalAlign=middle;resizable=0;points=[];fontSize=14;fontFamily=Arial;" parent="NR_m3aeMxa1FmbKq55WK-15" vertex="1" connectable="0">
          <mxGeometry x="-0.008" y="4" relative="1" as="geometry">
            <mxPoint x="-6" y="6" as="offset" />
          </mxGeometry>
        </mxCell>
        <mxCell id="NR_m3aeMxa1FmbKq55WK-16" style="edgeStyle=elbowEdgeStyle;rounded=0;orthogonalLoop=1;jettySize=auto;html=1;elbow=vertical;curved=0;fontFamily=Arial;fontSize=14;dashed=1;" parent="1" source="EwSGo4qGYbPlTqvoR_KC-2" target="EwSGo4qGYbPlTqvoR_KC-4" edge="1">
          <mxGeometry relative="1" as="geometry">
            <Array as="points">
              <mxPoint x="260" y="330" />
            </Array>
          </mxGeometry>
        </mxCell>
        <mxCell id="NR_m3aeMxa1FmbKq55WK-25" value="10.展示文档列表" style="edgeLabel;html=1;align=center;verticalAlign=middle;resizable=0;points=[];fontSize=14;fontFamily=Arial;" parent="NR_m3aeMxa1FmbKq55WK-16" vertex="1" connectable="0">
          <mxGeometry x="-0.0133" y="4" relative="1" as="geometry">
            <mxPoint y="6" as="offset" />
          </mxGeometry>
        </mxCell>
        <mxCell id="NR_m3aeMxa1FmbKq55WK-22" value="&lt;span class=&quot;custom-cursor-default-hover&quot; style=&quot;color: rgb(0, 0, 0); font-size: 14px; font-style: normal; font-variant-ligatures: normal; font-variant-caps: normal; font-weight: 400; letter-spacing: normal; orphans: 2; text-align: center; text-indent: 0px; text-transform: none; widows: 2; word-spacing: 0px; -webkit-text-stroke-width: 0px; background-color: rgb(255, 255, 255); text-decoration-thickness: initial; text-decoration-style: initial; text-decoration-color: initial; float: none; display: inline !important;&quot;&gt;8.返回文档对象列表&lt;/span&gt;" style="text;whiteSpace=wrap;html=1;fontSize=14;fontFamily=Arial;" parent="1" vertex="1">
          <mxGeometry x="590" y="290" width="160" height="40" as="geometry" />
        </mxCell>
        <mxCell id="gihAzams7Qu9K8A9bFX0-1" value="可选" style="shape=umlFrame;whiteSpace=wrap;html=1;pointerEvents=0;fontFamily=Arial;fontSize=14;fillColor=none;" parent="1" vertex="1">
          <mxGeometry x="160" y="420" width="310" height="60" as="geometry" />
        </mxCell>
        <mxCell id="gihAzams7Qu9K8A9bFX0-2" style="edgeStyle=elbowEdgeStyle;rounded=0;orthogonalLoop=1;jettySize=auto;html=1;elbow=vertical;curved=0;fontFamily=Arial;fontSize=14;" parent="1" source="EwSGo4qGYbPlTqvoR_KC-4" target="EwSGo4qGYbPlTqvoR_KC-6" edge="1">
          <mxGeometry relative="1" as="geometry">
            <Array as="points">
              <mxPoint x="370" y="460" />
            </Array>
          </mxGeometry>
        </mxCell>
        <mxCell id="gihAzams7Qu9K8A9bFX0-3" value="勾选多项" style="edgeLabel;html=1;align=center;verticalAlign=middle;resizable=0;points=[];fontSize=14;fontFamily=Arial;" parent="gihAzams7Qu9K8A9bFX0-2" vertex="1" connectable="0">
          <mxGeometry x="0.3752" y="-1" relative="1" as="geometry">
            <mxPoint x="-35" y="-11" as="offset" />
          </mxGeometry>
        </mxCell>
        <mxCell id="gihAzams7Qu9K8A9bFX0-5" value="OSS" style="shape=umlLifeline;perimeter=lifelinePerimeter;whiteSpace=wrap;html=1;container=0;dropTarget=0;collapsible=0;recursiveResize=0;outlineConnect=0;portConstraint=eastwest;newEdgeStyle={&quot;edgeStyle&quot;:&quot;elbowEdgeStyle&quot;,&quot;elbow&quot;:&quot;vertical&quot;,&quot;curved&quot;:0,&quot;rounded&quot;:0};fontFamily=Arial;fontSize=14;" parent="1" vertex="1">
          <mxGeometry x="960" y="760" width="60" height="120" as="geometry" />
        </mxCell>
        <mxCell id="gihAzams7Qu9K8A9bFX0-6" value="" style="html=1;points=[];perimeter=orthogonalPerimeter;outlineConnect=0;targetShapes=umlLifeline;portConstraint=eastwest;newEdgeStyle={&quot;edgeStyle&quot;:&quot;elbowEdgeStyle&quot;,&quot;elbow&quot;:&quot;vertical&quot;,&quot;curved&quot;:0,&quot;rounded&quot;:0};fontFamily=Arial;" parent="gihAzams7Qu9K8A9bFX0-5" vertex="1">
          <mxGeometry x="25" y="60" width="10" height="50" as="geometry" />
        </mxCell>
        <mxCell id="gihAzams7Qu9K8A9bFX0-8" style="edgeStyle=elbowEdgeStyle;rounded=0;orthogonalLoop=1;jettySize=auto;html=1;elbow=vertical;curved=0;fontFamily=Arial;fontSize=14;" parent="1" target="gihAzams7Qu9K8A9bFX0-6" edge="1">
          <mxGeometry relative="1" as="geometry">
            <mxPoint x="750" y="828" as="sourcePoint" />
            <mxPoint x="890" y="830" as="targetPoint" />
            <Array as="points">
              <mxPoint x="870" y="830" />
              <mxPoint x="910" y="850" />
            </Array>
          </mxGeometry>
        </mxCell>
        <mxCell id="gihAzams7Qu9K8A9bFX0-9" value="21.访问文件地址" style="edgeLabel;html=1;align=center;verticalAlign=middle;resizable=0;points=[];fontSize=14;fontFamily=Arial;" parent="gihAzams7Qu9K8A9bFX0-8" vertex="1" connectable="0">
          <mxGeometry x="0.246" y="-2" relative="1" as="geometry">
            <mxPoint x="-10" y="-12" as="offset" />
          </mxGeometry>
        </mxCell>
        <mxCell id="gihAzams7Qu9K8A9bFX0-11" style="edgeStyle=elbowEdgeStyle;rounded=0;orthogonalLoop=1;jettySize=auto;html=1;elbow=vertical;curved=0;fontFamily=Arial;fontSize=14;dashed=1;" parent="1" source="EwSGo4qGYbPlTqvoR_KC-49" edge="1">
          <mxGeometry relative="1" as="geometry">
            <Array as="points">
              <mxPoint x="865" y="706.0000000000001" />
            </Array>
            <mxPoint x="900" y="706" as="sourcePoint" />
            <mxPoint x="750" y="706.0000000000001" as="targetPoint" />
          </mxGeometry>
        </mxCell>
        <mxCell id="gihAzams7Qu9K8A9bFX0-12" value="19.返回文档对象" style="edgeLabel;html=1;align=center;verticalAlign=middle;resizable=0;points=[];fontSize=14;fontFamily=Arial;" parent="gihAzams7Qu9K8A9bFX0-11" vertex="1" connectable="0">
          <mxGeometry x="0.1556" y="3" relative="1" as="geometry">
            <mxPoint x="12" y="9" as="offset" />
          </mxGeometry>
        </mxCell>
        <mxCell id="gihAzams7Qu9K8A9bFX0-17" value="23.打包文件" style="html=1;align=left;spacingLeft=2;endArrow=block;rounded=0;edgeStyle=orthogonalEdgeStyle;curved=0;rounded=0;fontFamily=Arial;fontSize=14;" parent="1" edge="1">
          <mxGeometry x="-0.0661" y="10" relative="1" as="geometry">
            <mxPoint x="749" y="918.67" as="sourcePoint" />
            <Array as="points">
              <mxPoint x="780" y="918.67" />
              <mxPoint x="780" y="968.67" />
            </Array>
            <mxPoint x="749" y="968.67" as="targetPoint" />
            <mxPoint as="offset" />
          </mxGeometry>
        </mxCell>
        <mxCell id="gihAzams7Qu9K8A9bFX0-18" value="loop" style="shape=umlFrame;whiteSpace=wrap;html=1;pointerEvents=0;fontFamily=Arial;fontSize=14;fillColor=none;" parent="1" vertex="1">
          <mxGeometry x="690" y="650" width="390" height="240" as="geometry" />
        </mxCell>
        <mxCell id="gihAzams7Qu9K8A9bFX0-21" value="20.获取文件地址" style="html=1;align=left;spacingLeft=2;endArrow=block;rounded=0;edgeStyle=orthogonalEdgeStyle;curved=0;rounded=0;fontFamily=Arial;fontSize=14;" parent="1" edge="1">
          <mxGeometry x="-0.0893" y="10" relative="1" as="geometry">
            <mxPoint x="750" y="750" as="sourcePoint" />
            <Array as="points">
              <mxPoint x="781" y="750" />
              <mxPoint x="781" y="800" />
            </Array>
            <mxPoint x="750" y="800" as="targetPoint" />
            <mxPoint as="offset" />
          </mxGeometry>
        </mxCell>
      </root>
    </mxGraphModel>
  </diagram>
  <diagram id="zFwzl5aCf-aj5Reh7jTD" name="查询文档">
    <mxGraphModel dx="1221" dy="636" grid="1" gridSize="10" guides="1" tooltips="1" connect="1" arrows="1" fold="1" page="1" pageScale="1" pageWidth="827" pageHeight="1169" math="0" shadow="0">
      <root>
        <mxCell id="0" />
        <mxCell id="1" parent="0" />
        <mxCell id="Ibe_XEjyJZMiZvsMpNhY-1" value="&lt;font class=&quot;custom-cursor-default-hover&quot; style=&quot;font-size: 14px;&quot;&gt;文档列表&lt;/font&gt;" style="shape=umlLifeline;perimeter=lifelinePerimeter;whiteSpace=wrap;html=1;container=0;dropTarget=0;collapsible=0;recursiveResize=0;outlineConnect=0;portConstraint=eastwest;newEdgeStyle={&quot;edgeStyle&quot;:&quot;elbowEdgeStyle&quot;,&quot;elbow&quot;:&quot;vertical&quot;,&quot;curved&quot;:0,&quot;rounded&quot;:0};fontFamily=Arial;" parent="1" vertex="1">
          <mxGeometry x="280" y="40" width="80" height="410" as="geometry" />
        </mxCell>
        <mxCell id="Ibe_XEjyJZMiZvsMpNhY-2" value="" style="html=1;points=[];perimeter=orthogonalPerimeter;outlineConnect=0;targetShapes=umlLifeline;portConstraint=eastwest;newEdgeStyle={&quot;edgeStyle&quot;:&quot;elbowEdgeStyle&quot;,&quot;elbow&quot;:&quot;vertical&quot;,&quot;curved&quot;:0,&quot;rounded&quot;:0};fontFamily=Arial;fontSize=14;" parent="Ibe_XEjyJZMiZvsMpNhY-1" vertex="1">
          <mxGeometry x="35" y="80" width="10" height="300" as="geometry" />
        </mxCell>
        <mxCell id="Ibe_XEjyJZMiZvsMpNhY-79" value="10.&lt;font&gt;更新文档列表&lt;/font&gt;" style="html=1;align=left;spacingLeft=2;endArrow=block;rounded=0;edgeStyle=orthogonalEdgeStyle;curved=0;rounded=0;fontFamily=Arial;fontSize=14;" parent="Ibe_XEjyJZMiZvsMpNhY-1" edge="1">
          <mxGeometry x="0.1111" y="5" relative="1" as="geometry">
            <mxPoint x="45" y="300" as="sourcePoint" />
            <Array as="points">
              <mxPoint x="75" y="300" />
              <mxPoint x="75" y="330" />
            </Array>
            <mxPoint x="45" y="330" as="targetPoint" />
            <mxPoint as="offset" />
          </mxGeometry>
        </mxCell>
        <mxCell id="Ibe_XEjyJZMiZvsMpNhY-3" value="" style="shape=umlLifeline;perimeter=lifelinePerimeter;whiteSpace=wrap;html=1;container=1;dropTarget=0;collapsible=0;recursiveResize=0;outlineConnect=0;portConstraint=eastwest;newEdgeStyle={&quot;edgeStyle&quot;:&quot;elbowEdgeStyle&quot;,&quot;elbow&quot;:&quot;vertical&quot;,&quot;curved&quot;:0,&quot;rounded&quot;:0};participant=umlActor;size=60;fontFamily=Arial;" parent="1" vertex="1">
          <mxGeometry x="150" y="40" width="50" height="410" as="geometry" />
        </mxCell>
        <mxCell id="Ibe_XEjyJZMiZvsMpNhY-4" value="" style="html=1;points=[];perimeter=orthogonalPerimeter;outlineConnect=0;targetShapes=umlLifeline;portConstraint=eastwest;newEdgeStyle={&quot;edgeStyle&quot;:&quot;elbowEdgeStyle&quot;,&quot;elbow&quot;:&quot;vertical&quot;,&quot;curved&quot;:0,&quot;rounded&quot;:0};fontFamily=Arial;" parent="Ibe_XEjyJZMiZvsMpNhY-3" vertex="1">
          <mxGeometry x="20" y="80" width="10" height="300" as="geometry" />
        </mxCell>
        <mxCell id="Ibe_XEjyJZMiZvsMpNhY-7" value="&lt;font&gt;数据库&lt;/font&gt;" style="shape=umlLifeline;perimeter=lifelinePerimeter;whiteSpace=wrap;html=1;container=0;dropTarget=0;collapsible=0;recursiveResize=0;outlineConnect=0;portConstraint=eastwest;newEdgeStyle={&quot;edgeStyle&quot;:&quot;elbowEdgeStyle&quot;,&quot;elbow&quot;:&quot;vertical&quot;,&quot;curved&quot;:0,&quot;rounded&quot;:0};fontFamily=Arial;fontSize=14;" parent="1" vertex="1">
          <mxGeometry x="1000" y="40" width="120" height="360" as="geometry" />
        </mxCell>
        <mxCell id="Ibe_XEjyJZMiZvsMpNhY-8" value="" style="html=1;points=[];perimeter=orthogonalPerimeter;outlineConnect=0;targetShapes=umlLifeline;portConstraint=eastwest;newEdgeStyle={&quot;edgeStyle&quot;:&quot;elbowEdgeStyle&quot;,&quot;elbow&quot;:&quot;vertical&quot;,&quot;curved&quot;:0,&quot;rounded&quot;:0};fontFamily=Arial;" parent="Ibe_XEjyJZMiZvsMpNhY-7" vertex="1">
          <mxGeometry x="55" y="170" width="10" height="120" as="geometry" />
        </mxCell>
        <mxCell id="Ibe_XEjyJZMiZvsMpNhY-9" style="edgeStyle=elbowEdgeStyle;rounded=0;orthogonalLoop=1;jettySize=auto;html=1;elbow=vertical;curved=0;fontFamily=Arial;fontSize=14;" parent="1" edge="1">
          <mxGeometry relative="1" as="geometry">
            <mxPoint x="180" y="141" as="sourcePoint" />
            <mxPoint x="315" y="141" as="targetPoint" />
          </mxGeometry>
        </mxCell>
        <mxCell id="Ibe_XEjyJZMiZvsMpNhY-10" value="&lt;font&gt;1&lt;/font&gt;.输入查询条件" style="edgeLabel;html=1;align=center;verticalAlign=middle;resizable=0;points=[];fontFamily=Arial;fontSize=14;" parent="Ibe_XEjyJZMiZvsMpNhY-9" vertex="1" connectable="0">
          <mxGeometry x="-0.2179" y="4" relative="1" as="geometry">
            <mxPoint x="14" y="-6" as="offset" />
          </mxGeometry>
        </mxCell>
        <mxCell id="Ibe_XEjyJZMiZvsMpNhY-25" value="&lt;font class=&quot;custom-cursor-default-hover&quot; style=&quot;font-size: 14px;&quot;&gt;DocumentController&lt;/font&gt;" style="shape=umlLifeline;perimeter=lifelinePerimeter;whiteSpace=wrap;html=1;container=0;dropTarget=0;collapsible=0;recursiveResize=0;outlineConnect=0;portConstraint=eastwest;newEdgeStyle={&quot;edgeStyle&quot;:&quot;elbowEdgeStyle&quot;,&quot;elbow&quot;:&quot;vertical&quot;,&quot;curved&quot;:0,&quot;rounded&quot;:0};fontFamily=Arial;fontSize=14;" parent="1" vertex="1">
          <mxGeometry x="520" y="40" width="130" height="360" as="geometry" />
        </mxCell>
        <mxCell id="Ibe_XEjyJZMiZvsMpNhY-26" value="" style="html=1;points=[];perimeter=orthogonalPerimeter;outlineConnect=0;targetShapes=umlLifeline;portConstraint=eastwest;newEdgeStyle={&quot;edgeStyle&quot;:&quot;elbowEdgeStyle&quot;,&quot;elbow&quot;:&quot;vertical&quot;,&quot;curved&quot;:0,&quot;rounded&quot;:0};fontFamily=Arial;" parent="Ibe_XEjyJZMiZvsMpNhY-25" vertex="1">
          <mxGeometry x="60" y="89.34" width="10" height="230" as="geometry" />
        </mxCell>
        <mxCell id="Ibe_XEjyJZMiZvsMpNhY-27" value="&lt;font class=&quot;custom-cursor-default-hover&quot; style=&quot;font-size: 14px;&quot;&gt;DocumentServiceImpl&lt;/font&gt;" style="shape=umlLifeline;perimeter=lifelinePerimeter;whiteSpace=wrap;html=1;container=0;dropTarget=0;collapsible=0;recursiveResize=0;outlineConnect=0;portConstraint=eastwest;newEdgeStyle={&quot;edgeStyle&quot;:&quot;elbowEdgeStyle&quot;,&quot;elbow&quot;:&quot;vertical&quot;,&quot;curved&quot;:0,&quot;rounded&quot;:0};fontFamily=Arial;fontSize=14;" parent="1" vertex="1">
          <mxGeometry x="680" y="40" width="140" height="360" as="geometry" />
        </mxCell>
        <mxCell id="Ibe_XEjyJZMiZvsMpNhY-28" value="" style="html=1;points=[];perimeter=orthogonalPerimeter;outlineConnect=0;targetShapes=umlLifeline;portConstraint=eastwest;newEdgeStyle={&quot;edgeStyle&quot;:&quot;elbowEdgeStyle&quot;,&quot;elbow&quot;:&quot;vertical&quot;,&quot;curved&quot;:0,&quot;rounded&quot;:0};fontFamily=Arial;" parent="Ibe_XEjyJZMiZvsMpNhY-27" vertex="1">
          <mxGeometry x="65" y="100" width="10" height="208.67" as="geometry" />
        </mxCell>
        <mxCell id="Ibe_XEjyJZMiZvsMpNhY-29" value="DocumentDAO" style="shape=umlLifeline;perimeter=lifelinePerimeter;whiteSpace=wrap;html=1;container=0;dropTarget=0;collapsible=0;recursiveResize=0;outlineConnect=0;portConstraint=eastwest;newEdgeStyle={&quot;edgeStyle&quot;:&quot;elbowEdgeStyle&quot;,&quot;elbow&quot;:&quot;vertical&quot;,&quot;curved&quot;:0,&quot;rounded&quot;:0};fontFamily=Arial;fontSize=14;" parent="1" vertex="1">
          <mxGeometry x="840" y="40" width="120" height="360" as="geometry" />
        </mxCell>
        <mxCell id="Ibe_XEjyJZMiZvsMpNhY-30" value="" style="html=1;points=[];perimeter=orthogonalPerimeter;outlineConnect=0;targetShapes=umlLifeline;portConstraint=eastwest;newEdgeStyle={&quot;edgeStyle&quot;:&quot;elbowEdgeStyle&quot;,&quot;elbow&quot;:&quot;vertical&quot;,&quot;curved&quot;:0,&quot;rounded&quot;:0};fontFamily=Arial;" parent="Ibe_XEjyJZMiZvsMpNhY-29" vertex="1">
          <mxGeometry x="55" y="140" width="10" height="180" as="geometry" />
        </mxCell>
        <mxCell id="Ibe_XEjyJZMiZvsMpNhY-42" style="edgeStyle=elbowEdgeStyle;rounded=0;orthogonalLoop=1;jettySize=auto;html=1;elbow=vertical;curved=0;fontFamily=Arial;fontSize=14;" parent="1" source="Ibe_XEjyJZMiZvsMpNhY-2" target="Ibe_XEjyJZMiZvsMpNhY-26" edge="1">
          <mxGeometry relative="1" as="geometry">
            <Array as="points">
              <mxPoint x="470" y="160" />
            </Array>
          </mxGeometry>
        </mxCell>
        <mxCell id="Ibe_XEjyJZMiZvsMpNhY-43" value="&lt;font&gt;2.&lt;/font&gt;发送查询请求&lt;br&gt;&lt;font class=&quot;custom-cursor-default-hover&quot;&gt;/query&lt;/font&gt;" style="text;html=1;align=center;verticalAlign=middle;resizable=0;points=[];autosize=1;strokeColor=none;fillColor=none;fontSize=14;fontFamily=Arial;" parent="1" vertex="1">
          <mxGeometry x="390" y="135" width="120" height="50" as="geometry" />
        </mxCell>
        <mxCell id="Ibe_XEjyJZMiZvsMpNhY-44" style="edgeStyle=elbowEdgeStyle;rounded=0;orthogonalLoop=1;jettySize=auto;html=1;elbow=vertical;curved=0;fontFamily=Arial;fontSize=14;" parent="1" source="Ibe_XEjyJZMiZvsMpNhY-26" target="Ibe_XEjyJZMiZvsMpNhY-28" edge="1">
          <mxGeometry relative="1" as="geometry">
            <Array as="points">
              <mxPoint x="680" y="180" />
            </Array>
          </mxGeometry>
        </mxCell>
        <mxCell id="Ibe_XEjyJZMiZvsMpNhY-45" value="3.queryDocument()" style="edgeLabel;html=1;align=center;verticalAlign=middle;resizable=0;points=[];fontSize=14;fontFamily=Arial;" parent="Ibe_XEjyJZMiZvsMpNhY-44" vertex="1" connectable="0">
          <mxGeometry x="-0.0935" relative="1" as="geometry">
            <mxPoint y="-10" as="offset" />
          </mxGeometry>
        </mxCell>
        <mxCell id="Ibe_XEjyJZMiZvsMpNhY-46" style="edgeStyle=elbowEdgeStyle;rounded=0;orthogonalLoop=1;jettySize=auto;html=1;elbow=vertical;curved=0;fontFamily=Arial;fontSize=14;" parent="1" source="Ibe_XEjyJZMiZvsMpNhY-28" target="Ibe_XEjyJZMiZvsMpNhY-30" edge="1">
          <mxGeometry relative="1" as="geometry">
            <Array as="points">
              <mxPoint x="860" y="200" />
            </Array>
          </mxGeometry>
        </mxCell>
        <mxCell id="Ibe_XEjyJZMiZvsMpNhY-47" value="4.queryProcess()" style="edgeLabel;html=1;align=center;verticalAlign=middle;resizable=0;points=[];fontSize=14;fontFamily=Arial;" parent="Ibe_XEjyJZMiZvsMpNhY-46" vertex="1" connectable="0">
          <mxGeometry x="0.0267" y="4" relative="1" as="geometry">
            <mxPoint x="5" y="-11" as="offset" />
          </mxGeometry>
        </mxCell>
        <mxCell id="Ibe_XEjyJZMiZvsMpNhY-48" style="edgeStyle=elbowEdgeStyle;rounded=0;orthogonalLoop=1;jettySize=auto;html=1;elbow=vertical;curved=0;fontFamily=Arial;fontSize=14;" parent="1" source="Ibe_XEjyJZMiZvsMpNhY-30" target="Ibe_XEjyJZMiZvsMpNhY-8" edge="1">
          <mxGeometry relative="1" as="geometry">
            <Array as="points">
              <mxPoint x="1020" y="220" />
            </Array>
          </mxGeometry>
        </mxCell>
        <mxCell id="Ibe_XEjyJZMiZvsMpNhY-49" value="5.findAll()" style="edgeLabel;html=1;align=center;verticalAlign=middle;resizable=0;points=[];fontSize=14;fontFamily=Arial;" parent="Ibe_XEjyJZMiZvsMpNhY-48" vertex="1" connectable="0">
          <mxGeometry x="-0.0267" y="4" relative="1" as="geometry">
            <mxPoint x="12" y="-6" as="offset" />
          </mxGeometry>
        </mxCell>
        <mxCell id="Ibe_XEjyJZMiZvsMpNhY-50" style="edgeStyle=elbowEdgeStyle;rounded=0;orthogonalLoop=1;jettySize=auto;html=1;elbow=vertical;curved=0;fontFamily=Arial;fontSize=14;dashed=1;" parent="1" edge="1">
          <mxGeometry relative="1" as="geometry">
            <mxPoint x="1055" y="245" as="sourcePoint" />
            <mxPoint x="905" y="245" as="targetPoint" />
            <Array as="points">
              <mxPoint x="950" y="245" />
            </Array>
          </mxGeometry>
        </mxCell>
        <mxCell id="Ibe_XEjyJZMiZvsMpNhY-51" value="&lt;font&gt;6.&lt;/font&gt;返回文档对象列表" style="edgeLabel;html=1;align=center;verticalAlign=middle;resizable=0;points=[];fontSize=14;fontFamily=Arial;" parent="Ibe_XEjyJZMiZvsMpNhY-50" vertex="1" connectable="0">
          <mxGeometry x="-0.1733" y="-1" relative="1" as="geometry">
            <mxPoint x="-13" y="16" as="offset" />
          </mxGeometry>
        </mxCell>
        <mxCell id="Ibe_XEjyJZMiZvsMpNhY-52" style="edgeStyle=elbowEdgeStyle;rounded=0;orthogonalLoop=1;jettySize=auto;html=1;elbow=vertical;curved=0;fontFamily=Arial;fontSize=14;dashed=1;" parent="1" source="Ibe_XEjyJZMiZvsMpNhY-30" target="Ibe_XEjyJZMiZvsMpNhY-28" edge="1">
          <mxGeometry relative="1" as="geometry">
            <Array as="points">
              <mxPoint x="840" y="260" />
            </Array>
          </mxGeometry>
        </mxCell>
        <mxCell id="Ibe_XEjyJZMiZvsMpNhY-53" value="&lt;font&gt;7.&lt;/font&gt;返回文档对象列表" style="edgeLabel;html=1;align=center;verticalAlign=middle;resizable=0;points=[];fontSize=14;fontFamily=Arial;" parent="Ibe_XEjyJZMiZvsMpNhY-52" vertex="1" connectable="0">
          <mxGeometry x="-0.04" y="4" relative="1" as="geometry">
            <mxPoint x="4" y="6" as="offset" />
          </mxGeometry>
        </mxCell>
        <mxCell id="Ibe_XEjyJZMiZvsMpNhY-54" style="edgeStyle=elbowEdgeStyle;rounded=0;orthogonalLoop=1;jettySize=auto;html=1;elbow=vertical;curved=0;fontFamily=Arial;fontSize=14;dashed=1;" parent="1" source="Ibe_XEjyJZMiZvsMpNhY-28" target="Ibe_XEjyJZMiZvsMpNhY-26" edge="1">
          <mxGeometry relative="1" as="geometry">
            <Array as="points">
              <mxPoint x="700" y="280" />
            </Array>
          </mxGeometry>
        </mxCell>
        <mxCell id="Ibe_XEjyJZMiZvsMpNhY-55" style="edgeStyle=elbowEdgeStyle;rounded=0;orthogonalLoop=1;jettySize=auto;html=1;elbow=vertical;curved=0;fontFamily=Arial;fontSize=14;dashed=1;" parent="1" source="Ibe_XEjyJZMiZvsMpNhY-26" target="Ibe_XEjyJZMiZvsMpNhY-2" edge="1">
          <mxGeometry relative="1" as="geometry">
            <Array as="points">
              <mxPoint x="370" y="300" />
              <mxPoint x="460" y="310" />
            </Array>
          </mxGeometry>
        </mxCell>
        <mxCell id="Ibe_XEjyJZMiZvsMpNhY-56" value="&lt;font&gt;9.&lt;/font&gt;返回JSON数据" style="edgeLabel;html=1;align=center;verticalAlign=middle;resizable=0;points=[];fontSize=14;fontFamily=Arial;" parent="Ibe_XEjyJZMiZvsMpNhY-55" vertex="1" connectable="0">
          <mxGeometry x="-0.008" y="4" relative="1" as="geometry">
            <mxPoint x="-6" y="6" as="offset" />
          </mxGeometry>
        </mxCell>
        <mxCell id="Ibe_XEjyJZMiZvsMpNhY-57" style="edgeStyle=elbowEdgeStyle;rounded=0;orthogonalLoop=1;jettySize=auto;html=1;elbow=vertical;curved=0;fontFamily=Arial;fontSize=14;dashed=1;" parent="1" source="Ibe_XEjyJZMiZvsMpNhY-2" target="Ibe_XEjyJZMiZvsMpNhY-4" edge="1">
          <mxGeometry relative="1" as="geometry">
            <Array as="points">
              <mxPoint x="280" y="390" />
              <mxPoint x="260" y="330" />
            </Array>
          </mxGeometry>
        </mxCell>
        <mxCell id="Ibe_XEjyJZMiZvsMpNhY-58" value="&lt;font&gt;11.&lt;/font&gt;展示查询结果" style="edgeLabel;html=1;align=center;verticalAlign=middle;resizable=0;points=[];fontSize=14;fontFamily=Arial;" parent="Ibe_XEjyJZMiZvsMpNhY-57" vertex="1" connectable="0">
          <mxGeometry x="-0.0133" y="4" relative="1" as="geometry">
            <mxPoint y="14" as="offset" />
          </mxGeometry>
        </mxCell>
        <mxCell id="Ibe_XEjyJZMiZvsMpNhY-59" value="&lt;span class=&quot;custom-cursor-default-hover&quot; style=&quot;color: rgb(0, 0, 0); font-size: 14px; font-style: normal; font-variant-ligatures: normal; font-variant-caps: normal; font-weight: 400; letter-spacing: normal; orphans: 2; text-align: center; text-indent: 0px; text-transform: none; widows: 2; word-spacing: 0px; -webkit-text-stroke-width: 0px; background-color: rgb(255, 255, 255); text-decoration-thickness: initial; text-decoration-style: initial; text-decoration-color: initial; float: none; display: inline !important;&quot;&gt;&lt;font&gt;8.&lt;/font&gt;&lt;/span&gt;&lt;span class=&quot;custom-cursor-default-hover&quot; style=&quot;color: rgb(0, 0, 0); font-size: 14px; font-style: normal; font-variant-ligatures: normal; font-variant-caps: normal; font-weight: 400; letter-spacing: normal; orphans: 2; text-align: center; text-indent: 0px; text-transform: none; widows: 2; word-spacing: 0px; -webkit-text-stroke-width: 0px; background-color: rgb(255, 255, 255); text-decoration-thickness: initial; text-decoration-style: initial; text-decoration-color: initial; float: none; display: inline !important;&quot;&gt;返回文档对象列表&lt;/span&gt;" style="text;whiteSpace=wrap;html=1;fontSize=14;fontFamily=Arial;" parent="1" vertex="1">
          <mxGeometry x="590" y="290" width="160" height="40" as="geometry" />
        </mxCell>
      </root>
    </mxGraphModel>
  </diagram>
  <diagram id="AIWN2G92h5kw1yesMbA6" name="删除文档">
    <mxGraphModel dx="1221" dy="636" grid="1" gridSize="10" guides="1" tooltips="1" connect="1" arrows="1" fold="1" page="1" pageScale="1" pageWidth="827" pageHeight="1169" math="0" shadow="0">
      <root>
        <mxCell id="0" />
        <mxCell id="1" parent="0" />
        <mxCell id="ILmaGJx9bou7-iZatuQC-1" value="&lt;font class=&quot;custom-cursor-default-hover&quot; style=&quot;font-size: 14px;&quot;&gt;文档列表&lt;/font&gt;" style="shape=umlLifeline;perimeter=lifelinePerimeter;whiteSpace=wrap;html=1;container=0;dropTarget=0;collapsible=0;recursiveResize=0;outlineConnect=0;portConstraint=eastwest;newEdgeStyle={&quot;edgeStyle&quot;:&quot;elbowEdgeStyle&quot;,&quot;elbow&quot;:&quot;vertical&quot;,&quot;curved&quot;:0,&quot;rounded&quot;:0};fontFamily=Arial;" parent="1" vertex="1">
          <mxGeometry x="280" y="40" width="80" height="1080" as="geometry" />
        </mxCell>
        <mxCell id="ILmaGJx9bou7-iZatuQC-2" value="" style="html=1;points=[];perimeter=orthogonalPerimeter;outlineConnect=0;targetShapes=umlLifeline;portConstraint=eastwest;newEdgeStyle={&quot;edgeStyle&quot;:&quot;elbowEdgeStyle&quot;,&quot;elbow&quot;:&quot;vertical&quot;,&quot;curved&quot;:0,&quot;rounded&quot;:0};fontFamily=Arial;fontSize=14;" parent="ILmaGJx9bou7-iZatuQC-1" vertex="1">
          <mxGeometry x="35" y="80" width="10" height="240" as="geometry" />
        </mxCell>
        <mxCell id="ILmaGJx9bou7-iZatuQC-3" value="" style="shape=umlLifeline;perimeter=lifelinePerimeter;whiteSpace=wrap;html=1;container=1;dropTarget=0;collapsible=0;recursiveResize=0;outlineConnect=0;portConstraint=eastwest;newEdgeStyle={&quot;edgeStyle&quot;:&quot;elbowEdgeStyle&quot;,&quot;elbow&quot;:&quot;vertical&quot;,&quot;curved&quot;:0,&quot;rounded&quot;:0};participant=umlActor;size=60;fontFamily=Arial;" parent="1" vertex="1">
          <mxGeometry x="150" y="40" width="50" height="1080" as="geometry" />
        </mxCell>
        <mxCell id="ILmaGJx9bou7-iZatuQC-4" value="" style="html=1;points=[];perimeter=orthogonalPerimeter;outlineConnect=0;targetShapes=umlLifeline;portConstraint=eastwest;newEdgeStyle={&quot;edgeStyle&quot;:&quot;elbowEdgeStyle&quot;,&quot;elbow&quot;:&quot;vertical&quot;,&quot;curved&quot;:0,&quot;rounded&quot;:0};fontFamily=Arial;" parent="ILmaGJx9bou7-iZatuQC-3" vertex="1">
          <mxGeometry x="20" y="80" width="10" height="980" as="geometry" />
        </mxCell>
        <mxCell id="ILmaGJx9bou7-iZatuQC-5" value="文档删除" style="shape=umlLifeline;perimeter=lifelinePerimeter;whiteSpace=wrap;html=1;container=0;dropTarget=0;collapsible=0;recursiveResize=0;outlineConnect=0;portConstraint=eastwest;newEdgeStyle={&quot;edgeStyle&quot;:&quot;elbowEdgeStyle&quot;,&quot;elbow&quot;:&quot;vertical&quot;,&quot;curved&quot;:0,&quot;rounded&quot;:0};fontFamily=Arial;" parent="1" vertex="1">
          <mxGeometry x="400" y="360" width="80" height="310" as="geometry" />
        </mxCell>
        <mxCell id="ILmaGJx9bou7-iZatuQC-6" value="" style="html=1;points=[];perimeter=orthogonalPerimeter;outlineConnect=0;targetShapes=umlLifeline;portConstraint=eastwest;newEdgeStyle={&quot;edgeStyle&quot;:&quot;elbowEdgeStyle&quot;,&quot;elbow&quot;:&quot;vertical&quot;,&quot;curved&quot;:0,&quot;rounded&quot;:0};fontFamily=Arial;" parent="ILmaGJx9bou7-iZatuQC-5" vertex="1">
          <mxGeometry x="35" y="50" width="10" height="230" as="geometry" />
        </mxCell>
        <mxCell id="ILmaGJx9bou7-iZatuQC-7" value="&lt;font&gt;数据库&lt;/font&gt;" style="shape=umlLifeline;perimeter=lifelinePerimeter;whiteSpace=wrap;html=1;container=0;dropTarget=0;collapsible=0;recursiveResize=0;outlineConnect=0;portConstraint=eastwest;newEdgeStyle={&quot;edgeStyle&quot;:&quot;elbowEdgeStyle&quot;,&quot;elbow&quot;:&quot;vertical&quot;,&quot;curved&quot;:0,&quot;rounded&quot;:0};fontFamily=Arial;fontSize=14;" parent="1" vertex="1">
          <mxGeometry x="1000" y="40" width="120" height="710" as="geometry" />
        </mxCell>
        <mxCell id="ILmaGJx9bou7-iZatuQC-8" value="" style="html=1;points=[];perimeter=orthogonalPerimeter;outlineConnect=0;targetShapes=umlLifeline;portConstraint=eastwest;newEdgeStyle={&quot;edgeStyle&quot;:&quot;elbowEdgeStyle&quot;,&quot;elbow&quot;:&quot;vertical&quot;,&quot;curved&quot;:0,&quot;rounded&quot;:0};fontFamily=Arial;" parent="ILmaGJx9bou7-iZatuQC-7" vertex="1">
          <mxGeometry x="55" y="170" width="10" height="510" as="geometry" />
        </mxCell>
        <mxCell id="ILmaGJx9bou7-iZatuQC-9" style="edgeStyle=elbowEdgeStyle;rounded=0;orthogonalLoop=1;jettySize=auto;html=1;elbow=vertical;curved=0;fontFamily=Arial;fontSize=14;" parent="1" edge="1">
          <mxGeometry relative="1" as="geometry">
            <mxPoint x="180" y="141" as="sourcePoint" />
            <mxPoint x="315" y="141" as="targetPoint" />
          </mxGeometry>
        </mxCell>
        <mxCell id="ILmaGJx9bou7-iZatuQC-10" value="1.查看文档列表" style="edgeLabel;html=1;align=center;verticalAlign=middle;resizable=0;points=[];fontFamily=Arial;fontSize=14;" parent="ILmaGJx9bou7-iZatuQC-9" vertex="1" connectable="0">
          <mxGeometry x="-0.2179" y="4" relative="1" as="geometry">
            <mxPoint x="14" y="-6" as="offset" />
          </mxGeometry>
        </mxCell>
        <mxCell id="ILmaGJx9bou7-iZatuQC-11" style="edgeStyle=elbowEdgeStyle;rounded=0;orthogonalLoop=1;jettySize=auto;html=1;elbow=vertical;curved=0;fontFamily=Arial;fontSize=14;" parent="1" edge="1">
          <mxGeometry relative="1" as="geometry">
            <mxPoint x="180" y="516" as="sourcePoint" />
            <mxPoint x="435" y="516" as="targetPoint" />
          </mxGeometry>
        </mxCell>
        <mxCell id="ILmaGJx9bou7-iZatuQC-12" value="11.点击删除/批量删除按钮" style="edgeLabel;html=1;align=center;verticalAlign=middle;resizable=0;points=[];fontFamily=Arial;fontSize=14;" parent="ILmaGJx9bou7-iZatuQC-11" vertex="1" connectable="0">
          <mxGeometry x="0.3412" relative="1" as="geometry">
            <mxPoint x="-51" y="-15" as="offset" />
          </mxGeometry>
        </mxCell>
        <mxCell id="ILmaGJx9bou7-iZatuQC-13" style="edgeStyle=elbowEdgeStyle;rounded=0;orthogonalLoop=1;jettySize=auto;html=1;elbow=vertical;curved=0;fontFamily=Arial;fontSize=14;dashed=1;" parent="1" edge="1">
          <mxGeometry relative="1" as="geometry">
            <Array as="points">
              <mxPoint x="380" y="532" />
              <mxPoint x="370" y="542" />
              <mxPoint x="260" y="555" />
            </Array>
            <mxPoint x="435" y="532" as="sourcePoint" />
            <mxPoint x="180" y="532" as="targetPoint" />
          </mxGeometry>
        </mxCell>
        <mxCell id="ILmaGJx9bou7-iZatuQC-14" value="12.弹出确认操作窗口" style="edgeLabel;html=1;align=center;verticalAlign=middle;resizable=0;points=[];fontFamily=Arial;fontSize=14;" parent="ILmaGJx9bou7-iZatuQC-13" vertex="1" connectable="0">
          <mxGeometry x="-0.2078" y="-3" relative="1" as="geometry">
            <mxPoint x="-29" y="13" as="offset" />
          </mxGeometry>
        </mxCell>
        <mxCell id="ILmaGJx9bou7-iZatuQC-15" style="edgeStyle=elbowEdgeStyle;rounded=0;orthogonalLoop=1;jettySize=auto;html=1;elbow=vertical;curved=0;fontFamily=Arial;fontSize=14;" parent="1" edge="1">
          <mxGeometry relative="1" as="geometry">
            <mxPoint x="435" y="584.0000000000001" as="targetPoint" />
            <Array as="points">
              <mxPoint x="420" y="584.0000000000001" />
            </Array>
            <mxPoint x="180" y="584.0000000000001" as="sourcePoint" />
          </mxGeometry>
        </mxCell>
        <mxCell id="ILmaGJx9bou7-iZatuQC-16" value="13.点击确认" style="edgeLabel;html=1;align=center;verticalAlign=middle;resizable=0;points=[];fontFamily=Arial;fontSize=14;" parent="ILmaGJx9bou7-iZatuQC-15" vertex="1" connectable="0">
          <mxGeometry x="0.1849" y="1" relative="1" as="geometry">
            <mxPoint x="-61" y="-9" as="offset" />
          </mxGeometry>
        </mxCell>
        <mxCell id="ILmaGJx9bou7-iZatuQC-17" value="" style="edgeStyle=elbowEdgeStyle;rounded=0;orthogonalLoop=1;jettySize=auto;html=1;elbow=vertical;curved=0;fontFamily=Arial;" parent="1" edge="1" target="ILmaGJx9bou7-iZatuQC-26">
          <mxGeometry relative="1" as="geometry">
            <mxPoint x="445" y="593.6700000000001" as="sourcePoint" />
            <mxPoint x="575" y="593.6700000000001" as="targetPoint" />
          </mxGeometry>
        </mxCell>
        <mxCell id="ILmaGJx9bou7-iZatuQC-18" value="&lt;font class=&quot;custom-cursor-default-hover&quot; style=&quot;font-size: 14px;&quot;&gt;&lt;font&gt;14.&lt;/font&gt;&lt;font class=&quot;custom-cursor-default-hover&quot; style=&quot;&quot;&gt;发送下载请求&lt;br&gt;&lt;/font&gt;/delete&lt;br&gt;&lt;/font&gt;" style="edgeLabel;html=1;align=center;verticalAlign=middle;resizable=0;points=[];fillColor=none;fontFamily=Arial;" parent="ILmaGJx9bou7-iZatuQC-17" vertex="1" connectable="0">
          <mxGeometry x="0.2667" relative="1" as="geometry">
            <mxPoint x="-17" y="-21" as="offset" />
          </mxGeometry>
        </mxCell>
        <mxCell id="ILmaGJx9bou7-iZatuQC-19" style="edgeStyle=elbowEdgeStyle;rounded=0;orthogonalLoop=1;jettySize=auto;html=1;elbow=vertical;curved=0;fontFamily=Arial;" parent="1" target="ILmaGJx9bou7-iZatuQC-28" edge="1">
          <mxGeometry relative="1" as="geometry">
            <mxPoint x="585" y="624.0000000000001" as="sourcePoint" />
            <mxPoint x="735" y="624.0000000000001" as="targetPoint" />
          </mxGeometry>
        </mxCell>
        <mxCell id="ILmaGJx9bou7-iZatuQC-20" value="15.documentDelete()" style="edgeLabel;html=1;align=center;verticalAlign=middle;resizable=0;points=[];fontFamily=Arial;fontSize=14;" parent="ILmaGJx9bou7-iZatuQC-19" vertex="1" connectable="0">
          <mxGeometry x="-0.1871" y="-3" relative="1" as="geometry">
            <mxPoint x="14" y="-17" as="offset" />
          </mxGeometry>
        </mxCell>
        <mxCell id="ILmaGJx9bou7-iZatuQC-21" style="edgeStyle=elbowEdgeStyle;rounded=0;orthogonalLoop=1;jettySize=auto;html=1;elbow=vertical;curved=0;fontFamily=Arial;" parent="1" edge="1">
          <mxGeometry relative="1" as="geometry">
            <mxPoint x="745" y="639.0000000000001" as="sourcePoint" />
            <mxPoint x="895" y="639.0000000000001" as="targetPoint" />
          </mxGeometry>
        </mxCell>
        <mxCell id="ILmaGJx9bou7-iZatuQC-22" value="16.deleteProcess()" style="edgeLabel;html=1;align=center;verticalAlign=middle;resizable=0;points=[];fontFamily=Arial;fontSize=14;" parent="ILmaGJx9bou7-iZatuQC-21" vertex="1" connectable="0">
          <mxGeometry x="-0.1699" y="3" relative="1" as="geometry">
            <mxPoint x="11" y="-12" as="offset" />
          </mxGeometry>
        </mxCell>
        <mxCell id="ILmaGJx9bou7-iZatuQC-23" style="edgeStyle=elbowEdgeStyle;rounded=0;orthogonalLoop=1;jettySize=auto;html=1;elbow=vertical;curved=0;fontFamily=Arial;" parent="1" edge="1">
          <mxGeometry relative="1" as="geometry">
            <mxPoint x="905" y="671.5000000000001" as="sourcePoint" />
            <mxPoint x="1055" y="671.5000000000001" as="targetPoint" />
            <Array as="points">
              <mxPoint x="980" y="671.5000000000001" />
            </Array>
          </mxGeometry>
        </mxCell>
        <mxCell id="ILmaGJx9bou7-iZatuQC-24" value="17.removeItem()" style="edgeLabel;html=1;align=center;verticalAlign=middle;resizable=0;points=[];fontFamily=Arial;fontSize=14;" parent="ILmaGJx9bou7-iZatuQC-23" vertex="1" connectable="0">
          <mxGeometry x="-0.16" y="-1" relative="1" as="geometry">
            <mxPoint x="10" y="-12" as="offset" />
          </mxGeometry>
        </mxCell>
        <mxCell id="ILmaGJx9bou7-iZatuQC-25" value="&lt;font class=&quot;custom-cursor-default-hover&quot; style=&quot;font-size: 14px;&quot;&gt;DocumentController&lt;/font&gt;" style="shape=umlLifeline;perimeter=lifelinePerimeter;whiteSpace=wrap;html=1;container=0;dropTarget=0;collapsible=0;recursiveResize=0;outlineConnect=0;portConstraint=eastwest;newEdgeStyle={&quot;edgeStyle&quot;:&quot;elbowEdgeStyle&quot;,&quot;elbow&quot;:&quot;vertical&quot;,&quot;curved&quot;:0,&quot;rounded&quot;:0};fontFamily=Arial;fontSize=14;" parent="1" vertex="1">
          <mxGeometry x="520" y="40" width="130" height="1080" as="geometry" />
        </mxCell>
        <mxCell id="ILmaGJx9bou7-iZatuQC-26" value="" style="html=1;points=[];perimeter=orthogonalPerimeter;outlineConnect=0;targetShapes=umlLifeline;portConstraint=eastwest;newEdgeStyle={&quot;edgeStyle&quot;:&quot;elbowEdgeStyle&quot;,&quot;elbow&quot;:&quot;vertical&quot;,&quot;curved&quot;:0,&quot;rounded&quot;:0};fontFamily=Arial;" parent="ILmaGJx9bou7-iZatuQC-25" vertex="1">
          <mxGeometry x="60" y="90.66" width="10" height="910" as="geometry" />
        </mxCell>
        <mxCell id="ILmaGJx9bou7-iZatuQC-27" value="&lt;font class=&quot;custom-cursor-default-hover&quot; style=&quot;font-size: 14px;&quot;&gt;DocumentServiceImpl&lt;/font&gt;" style="shape=umlLifeline;perimeter=lifelinePerimeter;whiteSpace=wrap;html=1;container=0;dropTarget=0;collapsible=0;recursiveResize=0;outlineConnect=0;portConstraint=eastwest;newEdgeStyle={&quot;edgeStyle&quot;:&quot;elbowEdgeStyle&quot;,&quot;elbow&quot;:&quot;vertical&quot;,&quot;curved&quot;:0,&quot;rounded&quot;:0};fontFamily=Arial;fontSize=14;" parent="1" vertex="1">
          <mxGeometry x="680" y="40" width="140" height="1080" as="geometry" />
        </mxCell>
        <mxCell id="ILmaGJx9bou7-iZatuQC-28" value="" style="html=1;points=[];perimeter=orthogonalPerimeter;outlineConnect=0;targetShapes=umlLifeline;portConstraint=eastwest;newEdgeStyle={&quot;edgeStyle&quot;:&quot;elbowEdgeStyle&quot;,&quot;elbow&quot;:&quot;vertical&quot;,&quot;curved&quot;:0,&quot;rounded&quot;:0};fontFamily=Arial;" parent="ILmaGJx9bou7-iZatuQC-27" vertex="1">
          <mxGeometry x="65" y="110" width="10" height="868.67" as="geometry" />
        </mxCell>
        <mxCell id="ILmaGJx9bou7-iZatuQC-29" value="DocumentDAO" style="shape=umlLifeline;perimeter=lifelinePerimeter;whiteSpace=wrap;html=1;container=0;dropTarget=0;collapsible=0;recursiveResize=0;outlineConnect=0;portConstraint=eastwest;newEdgeStyle={&quot;edgeStyle&quot;:&quot;elbowEdgeStyle&quot;,&quot;elbow&quot;:&quot;vertical&quot;,&quot;curved&quot;:0,&quot;rounded&quot;:0};fontFamily=Arial;fontSize=14;" parent="1" vertex="1">
          <mxGeometry x="840" y="40" width="120" height="710" as="geometry" />
        </mxCell>
        <mxCell id="ILmaGJx9bou7-iZatuQC-30" value="" style="html=1;points=[];perimeter=orthogonalPerimeter;outlineConnect=0;targetShapes=umlLifeline;portConstraint=eastwest;newEdgeStyle={&quot;edgeStyle&quot;:&quot;elbowEdgeStyle&quot;,&quot;elbow&quot;:&quot;vertical&quot;,&quot;curved&quot;:0,&quot;rounded&quot;:0};fontFamily=Arial;" parent="ILmaGJx9bou7-iZatuQC-29" vertex="1">
          <mxGeometry x="55" y="140" width="10" height="540" as="geometry" />
        </mxCell>
        <mxCell id="ILmaGJx9bou7-iZatuQC-31" style="edgeStyle=elbowEdgeStyle;rounded=0;orthogonalLoop=1;jettySize=auto;html=1;elbow=vertical;curved=0;fontFamily=Arial;fontSize=14;dashed=1;" parent="1" edge="1">
          <mxGeometry relative="1" as="geometry">
            <Array as="points">
              <mxPoint x="1020" y="695.0000000000001" />
            </Array>
            <mxPoint x="1055" y="695.0000000000001" as="sourcePoint" />
            <mxPoint x="905" y="695.0000000000001" as="targetPoint" />
          </mxGeometry>
        </mxCell>
        <mxCell id="ILmaGJx9bou7-iZatuQC-32" value="18.返回删除的对象" style="edgeLabel;html=1;align=center;verticalAlign=middle;resizable=0;points=[];fontSize=14;fontFamily=Arial;" parent="ILmaGJx9bou7-iZatuQC-31" vertex="1" connectable="0">
          <mxGeometry x="0.1556" y="3" relative="1" as="geometry">
            <mxPoint x="12" y="9" as="offset" />
          </mxGeometry>
        </mxCell>
        <mxCell id="ILmaGJx9bou7-iZatuQC-33" style="edgeStyle=elbowEdgeStyle;rounded=0;orthogonalLoop=1;jettySize=auto;html=1;elbow=vertical;curved=0;dashed=1;fontFamily=Arial;fontSize=14;" parent="1" edge="1">
          <mxGeometry relative="1" as="geometry">
            <mxPoint x="985" y="854" as="sourcePoint" />
            <mxPoint x="755" y="854" as="targetPoint" />
          </mxGeometry>
        </mxCell>
        <mxCell id="ILmaGJx9bou7-iZatuQC-34" value="22.修改成功" style="edgeLabel;html=1;align=center;verticalAlign=middle;resizable=0;points=[];fontSize=14;fontFamily=Arial;" parent="ILmaGJx9bou7-iZatuQC-33" vertex="1" connectable="0">
          <mxGeometry x="-0.5511" y="-1" relative="1" as="geometry">
            <mxPoint x="-39" y="12" as="offset" />
          </mxGeometry>
        </mxCell>
        <mxCell id="ILmaGJx9bou7-iZatuQC-35" value="" style="edgeStyle=elbowEdgeStyle;rounded=0;orthogonalLoop=1;jettySize=auto;html=1;elbow=vertical;curved=0;dashed=1;fontFamily=Arial;fontSize=14;" parent="1" edge="1" target="ILmaGJx9bou7-iZatuQC-26">
          <mxGeometry relative="1" as="geometry">
            <Array as="points">
              <mxPoint x="610" y="991.6700000000001" />
            </Array>
            <mxPoint x="735" y="991.6700000000001" as="sourcePoint" />
            <mxPoint x="585" y="991.6700000000001" as="targetPoint" />
          </mxGeometry>
        </mxCell>
        <mxCell id="ILmaGJx9bou7-iZatuQC-36" value="24.删除完成" style="edgeLabel;html=1;align=center;verticalAlign=middle;resizable=0;points=[];fontSize=14;fontFamily=Arial;" parent="ILmaGJx9bou7-iZatuQC-35" vertex="1" connectable="0">
          <mxGeometry x="0.2076" y="-2" relative="1" as="geometry">
            <mxPoint x="16" y="13" as="offset" />
          </mxGeometry>
        </mxCell>
        <mxCell id="ILmaGJx9bou7-iZatuQC-37" style="edgeStyle=elbowEdgeStyle;rounded=0;orthogonalLoop=1;jettySize=auto;html=1;elbow=vertical;curved=0;dashed=1;fontFamily=Arial;fontSize=14;" parent="1" edge="1">
          <mxGeometry relative="1" as="geometry">
            <mxPoint x="325" y="1020.6700000000001" as="targetPoint" />
            <Array as="points">
              <mxPoint x="530" y="1020.6700000000001" />
            </Array>
            <mxPoint x="575" y="1020.6700000000001" as="sourcePoint" />
          </mxGeometry>
        </mxCell>
        <mxCell id="ILmaGJx9bou7-iZatuQC-38" value="25.删除完成" style="edgeLabel;html=1;align=center;verticalAlign=middle;resizable=0;points=[];fontSize=14;fontFamily=Arial;" parent="ILmaGJx9bou7-iZatuQC-37" vertex="1" connectable="0">
          <mxGeometry x="0.0557" y="1" relative="1" as="geometry">
            <mxPoint y="9" as="offset" />
          </mxGeometry>
        </mxCell>
        <mxCell id="ILmaGJx9bou7-iZatuQC-39" style="edgeStyle=elbowEdgeStyle;rounded=0;orthogonalLoop=1;jettySize=auto;html=1;elbow=vertical;curved=0;dashed=1;fontFamily=Arial;fontSize=14;" parent="1" edge="1">
          <mxGeometry relative="1" as="geometry">
            <mxPoint x="315" y="1050.67" as="sourcePoint" />
            <mxPoint x="180" y="1050.67" as="targetPoint" />
          </mxGeometry>
        </mxCell>
        <mxCell id="ILmaGJx9bou7-iZatuQC-40" value="26.删除成功" style="edgeLabel;html=1;align=center;verticalAlign=middle;resizable=0;points=[];fontSize=14;fontFamily=Arial;" parent="ILmaGJx9bou7-iZatuQC-39" vertex="1" connectable="0">
          <mxGeometry x="-0.4251" y="2" relative="1" as="geometry">
            <mxPoint x="-22" y="8" as="offset" />
          </mxGeometry>
        </mxCell>
        <mxCell id="ILmaGJx9bou7-iZatuQC-41" value="" style="html=1;points=[];perimeter=orthogonalPerimeter;outlineConnect=0;targetShapes=umlLifeline;portConstraint=eastwest;newEdgeStyle={&quot;edgeStyle&quot;:&quot;elbowEdgeStyle&quot;,&quot;elbow&quot;:&quot;vertical&quot;,&quot;curved&quot;:0,&quot;rounded&quot;:0};fontFamily=Arial;" parent="1" vertex="1">
          <mxGeometry x="315" y="968.6700000000001" width="10" height="100" as="geometry" />
        </mxCell>
        <mxCell id="ILmaGJx9bou7-iZatuQC-42" style="edgeStyle=elbowEdgeStyle;rounded=0;orthogonalLoop=1;jettySize=auto;html=1;elbow=vertical;curved=0;fontFamily=Arial;fontSize=14;" parent="1" source="ILmaGJx9bou7-iZatuQC-2" target="ILmaGJx9bou7-iZatuQC-26" edge="1">
          <mxGeometry relative="1" as="geometry">
            <Array as="points">
              <mxPoint x="470" y="160" />
            </Array>
          </mxGeometry>
        </mxCell>
        <mxCell id="ILmaGJx9bou7-iZatuQC-43" value="2.获取文档列表&lt;br&gt;&lt;font class=&quot;custom-cursor-default-hover&quot;&gt;/list&lt;/font&gt;" style="text;html=1;align=center;verticalAlign=middle;resizable=0;points=[];autosize=1;strokeColor=none;fillColor=none;fontSize=14;fontFamily=Arial;" parent="1" vertex="1">
          <mxGeometry x="390" y="135" width="120" height="50" as="geometry" />
        </mxCell>
        <mxCell id="ILmaGJx9bou7-iZatuQC-44" style="edgeStyle=elbowEdgeStyle;rounded=0;orthogonalLoop=1;jettySize=auto;html=1;elbow=vertical;curved=0;fontFamily=Arial;fontSize=14;" parent="1" source="ILmaGJx9bou7-iZatuQC-26" target="ILmaGJx9bou7-iZatuQC-28" edge="1">
          <mxGeometry relative="1" as="geometry">
            <Array as="points">
              <mxPoint x="680" y="180" />
            </Array>
          </mxGeometry>
        </mxCell>
        <mxCell id="ILmaGJx9bou7-iZatuQC-45" value="3.getDocList()" style="edgeLabel;html=1;align=center;verticalAlign=middle;resizable=0;points=[];fontSize=14;fontFamily=Arial;" parent="ILmaGJx9bou7-iZatuQC-44" vertex="1" connectable="0">
          <mxGeometry x="-0.0935" relative="1" as="geometry">
            <mxPoint y="-10" as="offset" />
          </mxGeometry>
        </mxCell>
        <mxCell id="ILmaGJx9bou7-iZatuQC-46" style="edgeStyle=elbowEdgeStyle;rounded=0;orthogonalLoop=1;jettySize=auto;html=1;elbow=vertical;curved=0;fontFamily=Arial;fontSize=14;" parent="1" source="ILmaGJx9bou7-iZatuQC-28" target="ILmaGJx9bou7-iZatuQC-30" edge="1">
          <mxGeometry relative="1" as="geometry">
            <Array as="points">
              <mxPoint x="860" y="200" />
            </Array>
          </mxGeometry>
        </mxCell>
        <mxCell id="ILmaGJx9bou7-iZatuQC-47" value="4.getList()" style="edgeLabel;html=1;align=center;verticalAlign=middle;resizable=0;points=[];fontSize=14;fontFamily=Arial;" parent="ILmaGJx9bou7-iZatuQC-46" vertex="1" connectable="0">
          <mxGeometry x="0.0267" y="4" relative="1" as="geometry">
            <mxPoint x="5" y="-11" as="offset" />
          </mxGeometry>
        </mxCell>
        <mxCell id="ILmaGJx9bou7-iZatuQC-48" style="edgeStyle=elbowEdgeStyle;rounded=0;orthogonalLoop=1;jettySize=auto;html=1;elbow=vertical;curved=0;fontFamily=Arial;fontSize=14;" parent="1" source="ILmaGJx9bou7-iZatuQC-30" target="ILmaGJx9bou7-iZatuQC-8" edge="1">
          <mxGeometry relative="1" as="geometry">
            <Array as="points">
              <mxPoint x="1020" y="220" />
            </Array>
          </mxGeometry>
        </mxCell>
        <mxCell id="ILmaGJx9bou7-iZatuQC-49" value="5.findAll()" style="edgeLabel;html=1;align=center;verticalAlign=middle;resizable=0;points=[];fontSize=14;fontFamily=Arial;" parent="ILmaGJx9bou7-iZatuQC-48" vertex="1" connectable="0">
          <mxGeometry x="-0.0267" y="4" relative="1" as="geometry">
            <mxPoint x="12" y="-6" as="offset" />
          </mxGeometry>
        </mxCell>
        <mxCell id="ILmaGJx9bou7-iZatuQC-50" style="edgeStyle=elbowEdgeStyle;rounded=0;orthogonalLoop=1;jettySize=auto;html=1;elbow=vertical;curved=0;fontFamily=Arial;fontSize=14;dashed=1;" parent="1" edge="1">
          <mxGeometry relative="1" as="geometry">
            <mxPoint x="1055" y="245" as="sourcePoint" />
            <mxPoint x="905" y="245" as="targetPoint" />
            <Array as="points">
              <mxPoint x="950" y="245" />
            </Array>
          </mxGeometry>
        </mxCell>
        <mxCell id="ILmaGJx9bou7-iZatuQC-51" value="6.返回文档对象列表" style="edgeLabel;html=1;align=center;verticalAlign=middle;resizable=0;points=[];fontSize=14;fontFamily=Arial;" parent="ILmaGJx9bou7-iZatuQC-50" vertex="1" connectable="0">
          <mxGeometry x="-0.1733" y="-1" relative="1" as="geometry">
            <mxPoint x="-13" y="16" as="offset" />
          </mxGeometry>
        </mxCell>
        <mxCell id="ILmaGJx9bou7-iZatuQC-52" style="edgeStyle=elbowEdgeStyle;rounded=0;orthogonalLoop=1;jettySize=auto;html=1;elbow=vertical;curved=0;fontFamily=Arial;fontSize=14;dashed=1;" parent="1" source="ILmaGJx9bou7-iZatuQC-30" target="ILmaGJx9bou7-iZatuQC-28" edge="1">
          <mxGeometry relative="1" as="geometry">
            <Array as="points">
              <mxPoint x="840" y="260" />
            </Array>
          </mxGeometry>
        </mxCell>
        <mxCell id="ILmaGJx9bou7-iZatuQC-53" value="7.返回文档对象列表" style="edgeLabel;html=1;align=center;verticalAlign=middle;resizable=0;points=[];fontSize=14;fontFamily=Arial;" parent="ILmaGJx9bou7-iZatuQC-52" vertex="1" connectable="0">
          <mxGeometry x="-0.04" y="4" relative="1" as="geometry">
            <mxPoint x="1" y="6" as="offset" />
          </mxGeometry>
        </mxCell>
        <mxCell id="ILmaGJx9bou7-iZatuQC-54" style="edgeStyle=elbowEdgeStyle;rounded=0;orthogonalLoop=1;jettySize=auto;html=1;elbow=vertical;curved=0;fontFamily=Arial;fontSize=14;dashed=1;" parent="1" source="ILmaGJx9bou7-iZatuQC-28" target="ILmaGJx9bou7-iZatuQC-26" edge="1">
          <mxGeometry relative="1" as="geometry">
            <Array as="points">
              <mxPoint x="700" y="280" />
            </Array>
          </mxGeometry>
        </mxCell>
        <mxCell id="ILmaGJx9bou7-iZatuQC-55" style="edgeStyle=elbowEdgeStyle;rounded=0;orthogonalLoop=1;jettySize=auto;html=1;elbow=vertical;curved=0;fontFamily=Arial;fontSize=14;dashed=1;" parent="1" source="ILmaGJx9bou7-iZatuQC-26" target="ILmaGJx9bou7-iZatuQC-2" edge="1">
          <mxGeometry relative="1" as="geometry">
            <Array as="points">
              <mxPoint x="370" y="300" />
              <mxPoint x="460" y="310" />
            </Array>
          </mxGeometry>
        </mxCell>
        <mxCell id="ILmaGJx9bou7-iZatuQC-56" value="9.返回文档列表" style="edgeLabel;html=1;align=center;verticalAlign=middle;resizable=0;points=[];fontSize=14;fontFamily=Arial;" parent="ILmaGJx9bou7-iZatuQC-55" vertex="1" connectable="0">
          <mxGeometry x="-0.008" y="4" relative="1" as="geometry">
            <mxPoint x="-6" y="6" as="offset" />
          </mxGeometry>
        </mxCell>
        <mxCell id="ILmaGJx9bou7-iZatuQC-57" style="edgeStyle=elbowEdgeStyle;rounded=0;orthogonalLoop=1;jettySize=auto;html=1;elbow=vertical;curved=0;fontFamily=Arial;fontSize=14;dashed=1;" parent="1" source="ILmaGJx9bou7-iZatuQC-2" target="ILmaGJx9bou7-iZatuQC-4" edge="1">
          <mxGeometry relative="1" as="geometry">
            <Array as="points">
              <mxPoint x="260" y="330" />
            </Array>
          </mxGeometry>
        </mxCell>
        <mxCell id="ILmaGJx9bou7-iZatuQC-58" value="10.展示文档列表" style="edgeLabel;html=1;align=center;verticalAlign=middle;resizable=0;points=[];fontSize=14;fontFamily=Arial;" parent="ILmaGJx9bou7-iZatuQC-57" vertex="1" connectable="0">
          <mxGeometry x="-0.0133" y="4" relative="1" as="geometry">
            <mxPoint y="6" as="offset" />
          </mxGeometry>
        </mxCell>
        <mxCell id="ILmaGJx9bou7-iZatuQC-59" value="&lt;span class=&quot;custom-cursor-default-hover&quot; style=&quot;color: rgb(0, 0, 0); font-size: 14px; font-style: normal; font-variant-ligatures: normal; font-variant-caps: normal; font-weight: 400; letter-spacing: normal; orphans: 2; text-align: center; text-indent: 0px; text-transform: none; widows: 2; word-spacing: 0px; -webkit-text-stroke-width: 0px; background-color: rgb(255, 255, 255); text-decoration-thickness: initial; text-decoration-style: initial; text-decoration-color: initial; float: none; display: inline !important;&quot;&gt;8.返回文档对象列表&lt;/span&gt;" style="text;whiteSpace=wrap;html=1;fontSize=14;fontFamily=Arial;" parent="1" vertex="1">
          <mxGeometry x="590" y="290" width="160" height="40" as="geometry" />
        </mxCell>
        <mxCell id="ILmaGJx9bou7-iZatuQC-60" value="可选" style="shape=umlFrame;whiteSpace=wrap;html=1;pointerEvents=0;fontFamily=Arial;fontSize=14;fillColor=none;" parent="1" vertex="1">
          <mxGeometry x="160" y="420" width="310" height="60" as="geometry" />
        </mxCell>
        <mxCell id="ILmaGJx9bou7-iZatuQC-61" style="edgeStyle=elbowEdgeStyle;rounded=0;orthogonalLoop=1;jettySize=auto;html=1;elbow=vertical;curved=0;fontFamily=Arial;fontSize=14;" parent="1" source="ILmaGJx9bou7-iZatuQC-4" target="ILmaGJx9bou7-iZatuQC-6" edge="1">
          <mxGeometry relative="1" as="geometry">
            <Array as="points">
              <mxPoint x="370" y="460" />
            </Array>
          </mxGeometry>
        </mxCell>
        <mxCell id="ILmaGJx9bou7-iZatuQC-62" value="勾选多项" style="edgeLabel;html=1;align=center;verticalAlign=middle;resizable=0;points=[];fontSize=14;fontFamily=Arial;" parent="ILmaGJx9bou7-iZatuQC-61" vertex="1" connectable="0">
          <mxGeometry x="0.3752" y="-1" relative="1" as="geometry">
            <mxPoint x="-35" y="-11" as="offset" />
          </mxGeometry>
        </mxCell>
        <mxCell id="ILmaGJx9bou7-iZatuQC-63" value="OSS" style="shape=umlLifeline;perimeter=lifelinePerimeter;whiteSpace=wrap;html=1;container=0;dropTarget=0;collapsible=0;recursiveResize=0;outlineConnect=0;portConstraint=eastwest;newEdgeStyle={&quot;edgeStyle&quot;:&quot;elbowEdgeStyle&quot;,&quot;elbow&quot;:&quot;vertical&quot;,&quot;curved&quot;:0,&quot;rounded&quot;:0};fontFamily=Arial;fontSize=14;" parent="1" vertex="1">
          <mxGeometry x="960" y="760" width="60" height="120" as="geometry" />
        </mxCell>
        <mxCell id="ILmaGJx9bou7-iZatuQC-64" value="" style="html=1;points=[];perimeter=orthogonalPerimeter;outlineConnect=0;targetShapes=umlLifeline;portConstraint=eastwest;newEdgeStyle={&quot;edgeStyle&quot;:&quot;elbowEdgeStyle&quot;,&quot;elbow&quot;:&quot;vertical&quot;,&quot;curved&quot;:0,&quot;rounded&quot;:0};fontFamily=Arial;" parent="ILmaGJx9bou7-iZatuQC-63" vertex="1">
          <mxGeometry x="25" y="60" width="10" height="50" as="geometry" />
        </mxCell>
        <mxCell id="ILmaGJx9bou7-iZatuQC-65" style="edgeStyle=elbowEdgeStyle;rounded=0;orthogonalLoop=1;jettySize=auto;html=1;elbow=vertical;curved=0;fontFamily=Arial;fontSize=14;" parent="1" target="ILmaGJx9bou7-iZatuQC-64" edge="1" source="ILmaGJx9bou7-iZatuQC-28">
          <mxGeometry relative="1" as="geometry">
            <mxPoint x="770" y="830" as="sourcePoint" />
            <mxPoint x="890" y="830" as="targetPoint" />
            <Array as="points">
              <mxPoint x="870" y="830" />
              <mxPoint x="910" y="850" />
            </Array>
          </mxGeometry>
        </mxCell>
        <mxCell id="ILmaGJx9bou7-iZatuQC-66" value="21.修改文件状态标记" style="edgeLabel;html=1;align=center;verticalAlign=middle;resizable=0;points=[];fontSize=14;fontFamily=Arial;" parent="ILmaGJx9bou7-iZatuQC-65" vertex="1" connectable="0">
          <mxGeometry x="0.246" y="-2" relative="1" as="geometry">
            <mxPoint x="-10" y="-12" as="offset" />
          </mxGeometry>
        </mxCell>
        <mxCell id="ILmaGJx9bou7-iZatuQC-67" style="edgeStyle=elbowEdgeStyle;rounded=0;orthogonalLoop=1;jettySize=auto;html=1;elbow=vertical;curved=0;fontFamily=Arial;fontSize=14;dashed=1;" parent="1" source="ILmaGJx9bou7-iZatuQC-30" edge="1" target="ILmaGJx9bou7-iZatuQC-28">
          <mxGeometry relative="1" as="geometry">
            <Array as="points">
              <mxPoint x="865" y="706.0000000000001" />
            </Array>
            <mxPoint x="900" y="706" as="sourcePoint" />
            <mxPoint x="750" y="706.0000000000001" as="targetPoint" />
          </mxGeometry>
        </mxCell>
        <mxCell id="ILmaGJx9bou7-iZatuQC-68" value="19.返回文档对象" style="edgeLabel;html=1;align=center;verticalAlign=middle;resizable=0;points=[];fontSize=14;fontFamily=Arial;" parent="ILmaGJx9bou7-iZatuQC-67" vertex="1" connectable="0">
          <mxGeometry x="0.1556" y="3" relative="1" as="geometry">
            <mxPoint x="12" y="9" as="offset" />
          </mxGeometry>
        </mxCell>
        <mxCell id="ILmaGJx9bou7-iZatuQC-69" value="23.级联删除" style="html=1;align=left;spacingLeft=2;endArrow=block;rounded=0;edgeStyle=orthogonalEdgeStyle;curved=0;rounded=0;fontFamily=Arial;fontSize=14;" parent="1" edge="1">
          <mxGeometry x="-0.0661" y="10" relative="1" as="geometry">
            <mxPoint x="756" y="918.67" as="sourcePoint" />
            <Array as="points">
              <mxPoint x="787" y="918.67" />
              <mxPoint x="787" y="968.67" />
            </Array>
            <mxPoint x="756" y="968.67" as="targetPoint" />
            <mxPoint as="offset" />
          </mxGeometry>
        </mxCell>
        <mxCell id="ILmaGJx9bou7-iZatuQC-70" value="loop" style="shape=umlFrame;whiteSpace=wrap;html=1;pointerEvents=0;fontFamily=Arial;fontSize=14;fillColor=none;" parent="1" vertex="1">
          <mxGeometry x="690" y="650" width="390" height="240" as="geometry" />
        </mxCell>
        <mxCell id="ILmaGJx9bou7-iZatuQC-71" value="20.获取文件地址" style="html=1;align=left;spacingLeft=2;endArrow=block;rounded=0;edgeStyle=orthogonalEdgeStyle;curved=0;rounded=0;fontFamily=Arial;fontSize=14;" parent="1" edge="1">
          <mxGeometry x="-0.0893" y="10" relative="1" as="geometry">
            <mxPoint x="755" y="750" as="sourcePoint" />
            <Array as="points">
              <mxPoint x="786" y="750" />
              <mxPoint x="786" y="800" />
            </Array>
            <mxPoint x="755" y="800" as="targetPoint" />
            <mxPoint as="offset" />
          </mxGeometry>
        </mxCell>
      </root>
    </mxGraphModel>
  </diagram>
</mxfile>
